<svg xmlns="http://www.w3.org/2000/svg" viewBox="0 0 419.8 358.38"><path d="M396.76,117.75H316.67L267.44,13.22a23,23,0,0,0-41.69,19.64l40,84.89H154.07l40-84.89a23,23,0,0,0-41.69-19.64L103.13,117.75H23a23,23,0,0,0,0,46.09h1.18L65.7,317.94a22.94,22.94,0,0,0,14.93,40.44H339.16a22.95,22.95,0,0,0,14.94-40.45l41.48-154.09h1.18a23,23,0,0,0,0-46.09ZM151,271.34a15.36,15.36,0,0,1-30.72,0V192A15.36,15.36,0,0,1,151,192Zm74.25,0a15.37,15.37,0,0,1-30.73,0V192a15.37,15.37,0,0,1,30.73,0Zm74.23,0a15.36,15.36,0,1,1-30.72,0V192a15.36,15.36,0,0,1,30.72,0Z"/></svg>