<svg xmlns="http://www.w3.org/2000/svg" viewBox="0 0 1920.5 361.53"><path d="M.5,361,1,30.44A1567,1567,0,0,1,304.61.5c26.23,0,52.76.68,78.86,2C535.93,10.4,624.16,38.43,702,63.16c76.69,24.36,149.13,47.37,269,47.37h1.53c118.43-.19,189.42-22.57,264.59-46.26C1314,40,1401.15,12.55,1553.52,5.53c23.29-1.07,47-1.61,70.35-1.61A1561.74,1561.74,0,0,1,1920,32.44L1919.5,361Z" fill="#4a7550"/><path d="M304.61,1c26.22,0,52.74.68,78.84,2C451.58,6.55,512.59,14.33,570,26.81c50.61,11,91.92,24.13,131.88,36.83,39.21,12.45,76.25,24.22,118.8,33C868.46,106.45,916.22,111,971,111h1.53C1091,110.84,1162,88.45,1237.24,64.74c39.5-12.45,80.35-25.33,130.55-36C1424.69,16.59,1485.45,9.17,1553.55,6c23.27-1.07,46.93-1.61,70.33-1.61A1559.76,1559.76,0,0,1,1919.5,32.86l-.5,327.67H1L1.5,30.85A1566.52,1566.52,0,0,1,304.61,1m0-1A1563.44,1563.44,0,0,0,.5,30Q.25,195.78,0,361.53H1920q.26-164.74.5-329.5A1556.76,1556.76,0,0,0,1623.87,3.42q-34.09,0-70.37,1.61c-299.86,13.81-340.27,104.62-581,105H971C728.85,110,685.31,17.62,383.5,2c-27.13-1.4-53.44-2-78.89-2Z"/></svg>