<?xml version="1.0" encoding="utf-8"?>
<!-- Generator: Adobe Illustrator 24.3.0, SVG Export Plug-In . SVG Version: 6.00 Build 0)  -->
<svg version="1.1" id="レイヤー_1" xmlns="http://www.w3.org/2000/svg" xmlns:xlink="http://www.w3.org/1999/xlink" x="0px"
	 y="0px" viewBox="0 0 305.7 84.6" style="enable-background:new 0 0 305.7 84.6;" xml:space="preserve">
<style type="text/css">
	.st0{enable-background:new    ;}
	.st1{fill:#006934;}
</style>
<g class="st0">
	<path class="st1" d="M27.3,21c0.1,1.6,0,3.2-0.4,4.9s-0.9,3.3-1.6,4.7c-0.7,1.4-1.6,2.4-2.6,3c-0.1-0.4-0.8-0.8-1.9-1.2
		c-1.1-0.4-2.5-0.7-4.1-1s-3.2-0.6-4.9-0.9c-1.7-0.3-3.2-0.7-4.5-1s-2.2-0.7-2.6-1.1c-1.2-1-2.2-2.6-3.1-4.8
		c-0.9-2.2-1.4-5.1-1.6-8.8c0.3,0.1,1,0.1,2.1,0.1s2.5,0,4.1,0s3.2,0,4.9-0.1c1.6-0.1,3.1-0.1,4.4-0.2c1.3-0.1,2.2-0.1,2.7-0.3
		c2.6-0.5,4.4-0.6,5.5-0.3c1,0.3,1.8,0.9,2.3,1.8s0.9,1.8,1.1,2.7C27.2,19.6,27.3,20.4,27.3,21z M24.3,60.3c0.9,0.9,1.6,2,1.9,3.3
		c0.4,1.3,0.5,2.7,0.5,4c0,1.7-0.2,3.2-0.7,4.6s-1,2.3-1.6,2.8c-0.8,0.6-2.1,1.1-4,1.5s-4,0.5-6.5,0.4c-2.4-0.2-4.7-0.7-6.8-1.4
		C5,74.8,3.3,73.3,1.9,71c-0.6-1-0.9-2.4-1-4.2c-0.1-1.9,0-3.8,0.2-5.9c0.3-2.1,0.7-4,1.3-5.7s1.3-2.9,2.1-3.5
		c0.4,1.3,1,2.4,1.8,3.5s1.8,2,2.8,2.6c1,0.7,2,1,2.8,1.2c0.9,0.1,2,0.2,3.3,0.2s2.6,0.1,3.9,0.1c1.3,0.1,2.4,0.2,3.4,0.3
		C23.4,59.8,24,60,24.3,60.3z"/>
	<path class="st1" d="M56.8,59.5c0,0.3,0.2,0.8,0.4,1.5c0.2,0.7,0.5,1.2,0.9,1.6c-0.3,0.8-0.7,2-1.2,3.3c-0.6,1.4-1.2,2.7-1.8,3.9
		c-0.6,1.2-1.2,2-1.6,2.2c-0.6,0.4-1.4,0.5-2.2,0.4c-0.8-0.2-1.4-1.2-1.9-3c-0.3-1.3-0.6-2.9-0.8-4.8c-0.2-1.9-0.3-3.7-0.4-5.5
		s-0.1-3.9-0.2-6.3c0-0.4,0-1.4,0-3c0.1-1.6,0.1-3.4,0.2-5.6c0.1-2.2,0.2-4.4,0.3-6.7c0.1-2.3,0.2-4.4,0.3-6.4
		c0.1-1.9,0.2-3.5,0.2-4.6c0.1-1.9,0.1-3.8,0-5.9s-0.1-4-0.2-5.7s-0.2-2.8-0.3-3.3c2.6-0.1,4.6,0.6,6.1,2c1.5,1.5,2.3,3.6,2.5,6.5
		c0,0.9,0,2.2,0,3.8S57,27.2,56.9,29s-0.2,3.5-0.3,5c-0.1,1.5-0.2,2.7-0.2,3.5c-0.1,2.2-0.2,4.8-0.2,7.6c0,2.9,0,5.6,0.1,8.2
		S56.6,58,56.8,59.5z M83.8,15c0.5,0.1,1.1,0.5,1.7,1.2c0.6,0.7,1.1,1.6,1.5,2.8c0.4,1.2,0.5,2.7,0.4,4.4c-0.1,2-0.7,3.5-1.7,4.5
		s-2.2,1.7-3.5,2c-0.3,0.1-0.5,0.3-0.6,0.8c-0.1,0.5-0.3,0.9-0.4,1.5c-0.1,1.4-0.2,3.2-0.2,5.1c-0.1,2-0.1,3.8-0.1,5.5
		s0.1,2.9,0.1,3.6c0.1,1.6,0.4,2.8,0.8,3.7c0.4,0.9,0.8,1.6,1.3,2.2c0.4,0.6,0.8,1.1,1.1,1.6c0.4,0.8,0.6,2.1,0.5,3.8
		c-0.1,1.7-0.4,3.1-1.1,4.1c-0.4,0.6-0.7,1.2-1.1,1.9c-0.3,0.7-0.5,1.6-0.6,2.9c-0.1,2.6-0.5,4.7-1.2,6.3s-1.3,2.8-2.1,3.9
		c-0.8,1-1.8,1.6-3,1.8c-1.2,0.3-2.5,0.4-3.8,0.5c-0.9,0-1.9-0.2-3-0.4c-1.2-0.3-2.3-0.8-3.3-1.4c-1.1-0.6-1.9-1.4-2.6-2.3
		c-1.5-2.1-2.2-5.2-2.2-9.3c0-0.8,0.2-2,0.4-3.5c0.2-1.5,0.5-2.7,0.8-3.6c0.9-2.8,1.8-4.8,2.9-5.9c1.1-1.1,2-2,2.7-2.6
		c0.7-0.5,1.6-1,2.6-1.3s1.9-1,2.5-2.1c0.5-0.8,0.8-1.5,0.8-2.1c0.1-0.6,0.1-1.2,0.1-1.9c0-0.5,0.1-1.2,0.1-2.1c0-0.9,0-1.9,0-2.8
		c0-1-0.1-1.7-0.1-2.2c-0.1-0.8-0.2-1.6-0.4-2.4c-0.2-0.8-0.6-1.6-1.2-2.3c-0.3-0.3-0.8-0.6-1.5-0.8s-1.5-0.4-2.3-0.6
		s-1.5-0.3-2-0.5c-0.8-0.2-1.4-0.7-2-1.5c-0.6-0.7-1-1.6-1.4-2.7s-0.5-2.2-0.6-3.5c0-1.3,0.2-2.5,0.5-3.6c0.1,0.1,0.4,0.2,1,0.3
		c0.6,0.1,1.2,0.2,2,0.3c0.8,0.1,1.5,0.1,2.2,0.1s1.3-0.1,1.8-0.2c0.3-0.1,0.6-0.3,0.8-0.5c0.3-0.2,0.5-0.7,0.6-1.4
		c0.1-0.7,0.1-1.9-0.1-3.6c-0.1-0.7-0.2-1.1-0.3-1.4c-0.1-0.3-0.2-0.6-0.3-0.8c1.2-0.8,2.3-1.2,3.4-1.4C74.8,9,75.8,9,76.6,9.3
		c1.8,0.6,2.8,1.7,3.1,3.4c0.1,0.7,0.3,1.5,0.6,2.5s0.7,1.5,1.1,1.7c0.4,0.1,0.8,0,1.2-0.4C83.5,16.1,83.8,15.6,83.8,15z M69.4,66.6
		c0.4,0.7,0.9,0.9,1.6,0.8s1.2-0.4,1.7-0.8c0.5-0.5,1-1.3,1.2-2.2c0.3-1,0.3-1.9-0.1-3c-0.1-0.5-0.5-0.7-1.1-0.7
		c-0.6,0-1.2,0.2-1.7,0.7c-0.8,0.7-1.4,1.5-1.7,2.6C69,65.1,69,66,69.4,66.6z M88.1,8.4c-0.3,0.4-0.5,1.1-0.5,1.9
		c0,0.8-0.3,1.7-0.9,2.5c-0.5,0.6-1,0.8-1.6,0.6c-0.6-0.2-1.1-0.8-1.5-1.7c-0.4-0.9-0.6-1.9-0.6-3s0.2-1.9,0.7-2.5
		c0.5-0.7,1.1-0.9,1.6-0.7c0.5,0.2,1,0.1,1.3-0.4C86.8,4.8,86.9,4.4,87,4c0-0.5,0.1-1,0.2-1.5c0.1-0.6,0.4-1.2,0.8-1.8
		c0.4-0.6,1-0.8,1.6-0.6c0.6,0.2,1.2,0.8,1.6,1.7c0.4,0.9,0.6,1.9,0.6,2.9c0,1.1-0.2,1.9-0.7,2.5c-0.4,0.6-0.8,0.9-1.2,0.9
		S89.2,8.1,89,8C88.8,7.9,88.3,8.1,88.1,8.4z"/>
	<path class="st1" d="M142.5,32.5c0.5,2.1,0.7,4.5,0.8,7.2c0,2.7-0.1,5.3-0.3,7.9c-0.2,2.6-0.5,4.8-0.8,6.6c-0.5,2.6-1,4.4-1.7,5.5
		s-1.4,1.8-2.3,2.1c-0.8,0.3-1.4,0.3-1.8-0.1c-0.4-0.4-0.8-0.4-1.1,0l-1.2,1.4c-0.2,0.3-0.6,0.5-1.2,0.6c-0.6,0.1-1.2,0.1-1.7,0
		c-0.6-0.1-1-0.4-1.4-0.8c-0.9-1.2-1.6-2.7-2.2-4.4c-0.6-1.7-1-3.5-1.4-5.3c-0.3-1.8-0.6-3.4-0.8-4.8c-0.2-1.4-0.4-2.8-0.7-4.4
		c-0.3-1.6-0.6-2.9-1.1-4.1c-0.4-1.2-1-1.9-1.6-2.2c-1.3-0.7-2.3-0.5-3,0.5s-1.2,2.1-1.5,3.3s-0.4,2.5-0.5,4
		c-0.1,1.4-0.1,2.6,0.1,3.6c0.2,1.1,0.6,2.4,1.2,4c0.6,1.6,1.3,3.2,2.1,4.9s1.6,3.1,2.3,4.4c1.1,1.9,2.2,3.5,3.2,4.8s2,1.8,2.8,1.5
		c0.6,3,0.8,5.5,0.6,7.5s-0.7,3.5-1.4,4.6s-1.5,1.8-2.3,2.1c-0.6,0.2-1.3,0-2.2-0.5s-1.7-1.1-2.4-1.7c-0.9-0.9-1.9-2.4-3-4.4
		s-2.1-4.2-3.1-6.6s-1.9-4.6-2.6-6.6c-0.7-2-1.2-3.5-1.5-4.5c-0.5-1.9-1.4-3.2-2.4-4.1c-1.1-0.9-2.3-1.7-3.7-2.4
		c-0.4-0.2-1-0.8-1.8-1.8s-1.5-2.3-2.2-4s-1.1-3.7-1.2-6.1c1.4,0,2.6-0.6,3.6-1.7c1-1.1,1.8-2.3,2.3-3.6c0.6-1.3,1-2.2,1.3-2.8
		c0.2-0.5,0.4-1.3,0.6-2.5c0.2-1.2,0.3-2.5,0.3-4c0.1-1.5,0-3-0.1-4.4s-0.4-2.5-0.7-3.4c2.4-0.5,4.5-0.3,6.2,0.5s3,1.9,4,3.1
		c0.4,0.4,1.1,0.6,2.1,0.5s1.8-0.7,2.5-1.9c0.7-1.2,1.4-2.8,2-5c0.6-2.1,0.9-4.8,0.8-8.2c1.9-0.2,3.5,0.1,4.9,1
		c1.3,0.9,2.4,2.2,3.1,3.7c0.8,1.6,1.2,3.2,1.2,5c0,0.7,0.2,1.6,0.5,2.6s0.8,1.8,1.5,2.3c1.5,1.1,2.9,2.6,4.1,4.4
		C141.1,27.5,142,29.8,142.5,32.5z M135.3,51.3c0.4-0.1,0.7-0.6,0.8-1.5c0.1-1,0.2-2.2,0.1-3.6c0-1.4-0.1-2.9-0.3-4.4
		c-0.2-2-0.5-3.7-0.8-5.3c-0.4-1.5-0.8-2.2-1.3-2.1c-0.6,0.2-1.1,0.8-1.4,1.8c-0.3,1-0.4,2.2-0.4,3.6c0,1.4,0.1,2.8,0.4,4.2
		c0.3,2,0.7,3.8,1.2,5.3C134.1,50.6,134.7,51.3,135.3,51.3z"/>
	<path class="st1" d="M190.6,13.3c1.1,2.8,1.7,4.9,1.8,6.5s-0.1,3.2-0.8,4.8c-0.5,1.1-1.1,2-1.8,2.6c-0.8,0.6-1.5,1-2.3,1.4
		c-0.9,0.4-1.5,1.2-1.7,2.3s-0.3,1.9-0.1,2.5c0.9,2.2,1.6,4.1,1.9,5.7c0.3,1.6,0.5,3.4,0.4,5.4s-0.4,3.8-0.7,5.5
		c-0.4,1.7-0.5,3.3-0.5,4.9c0.1,2.6,0.1,5.3-0.1,8.2c-0.2,2.9-0.5,5.8-1,8.6c-0.5,2.8-1.1,5.5-1.9,7.9c-0.3,0.9-0.8,1.7-1.4,2.5
		c-0.6,0.7-1.3,1.3-2.1,1.6c-0.8,0.3-1.5,0.3-2.2,0c-0.6-0.3-1.4-1-2.2-2s-1.5-2.1-2.1-3.2s-0.9-2-1-2.5c0.6-0.5,1.2-1.1,2-1.8
		c0.8-0.8,1.5-1.6,2.1-2.6s1.1-2.1,1.3-3.2c0.1-0.7,0.2-1.6,0.2-2.7s-0.1-2-0.2-2.4c-0.2-0.7-0.6-0.9-1.2-0.7
		c-0.6,0.2-1.1,0.6-1.8,1c-0.6,0.5-1.2,0.8-1.7,1c-0.7,0.2-1.7,0.4-3.1,0.5c-1.3,0.1-2.6-0.3-3.8-1.2c-0.8-0.6-1.6-1.7-2.4-3.2
		s-1.4-3.3-1.9-5.4c-0.5-2.1-0.5-4.4-0.3-6.8c0.4-3.3,0.9-5.9,1.6-7.8c0.7-1.9,1.5-3.4,2.5-4.5s1.8-2,2.7-2.8s1.8-1.4,2.6-1.6
		c0.8-0.2,1.6-0.4,2.4-0.6c0.5-0.1,0.9-0.6,1-1.4c0.1-0.8-0.1-1.7-0.6-2.5s-1.4-1.2-2.6-1.1c-0.5,0-1.2,0.1-2.2,0.4
		c-1,0.2-2,0.5-3.2,0.7s-2.3,0.3-3.3,0.2c-1.1-0.1-1.9-0.5-2.5-1.1c-0.7-0.8-1.4-1.7-1.9-2.7c-0.6-0.9-1-2.2-1.2-3.8
		c-0.2-1.6-0.2-3.8,0.1-6.6c0.8,0.2,1.8,0.4,2.9,0.5c1.2,0.1,2.4,0.2,3.6,0.2c1.3,0,2.4,0,3.5,0s1.9-0.1,2.5-0.1
		c0.8-0.1,1.5-0.3,2.3-0.5c0.7-0.2,1.3-0.7,1.8-1.5s0.8-2,0.9-3.7c0.1-0.6,0.1-1.2-0.1-1.9c-0.1-0.7-0.2-1.3-0.3-1.9
		c1.2-0.2,2.4-0.1,3.6,0.3c1.2,0.4,2.2,0.9,3.1,1.7c0.9,0.7,1.4,1.5,1.7,2.2c0.4,1.1,0.8,2.1,1.3,3.2s1,1.8,1.6,2.1
		C187.3,14.3,188.8,14.2,190.6,13.3z M173.7,48c0.2-0.4,0.5-0.9,0.8-1.7s0.4-1.5,0.2-2.1c-0.2-0.7-0.4-0.9-0.6-0.9
		c-0.2,0.1-0.4,0.2-0.6,0.3c-0.1,0.1-0.3,0.3-0.6,0.7s-0.6,0.9-0.9,1.4c-0.3,0.5-0.5,1-0.6,1.4c-0.1,0.6-0.2,1.1-0.1,1.4
		s0.2,0.6,0.5,0.7c0.4,0.2,0.8,0.2,1.1-0.2C173.2,48.8,173.4,48.4,173.7,48z"/>
	<path class="st1" d="M248.5,71.5c0.2,0.2,0.6,0.6,1.2,1.2s1.2,1.2,1.9,1.8c0.7,0.6,1.5,1.4,2.5,2.3c-0.5,1.5-1,2.7-1.5,3.7
		s-1.1,1.8-1.7,2.6c-0.5,0.5-1.1,0.9-1.7,1s-1.3-0.2-2-0.9c-0.7-0.7-1.8-1.8-3.3-3.3s-3.1-3.2-4.9-5.1c-0.2-0.2-0.5-0.5-0.8-0.8
		s-0.6-0.3-0.9-0.2c-0.3,0.2-0.7,0.7-1.1,1.7c-0.4,0.8-0.8,1.6-1.3,2.2c-0.5,0.7-1.3,1.2-2.4,1.6c-0.7,0.2-1.7,0.6-3.1,0.9
		c-1.4,0.4-2.9,0.8-4.6,1.1s-3.3,0.7-4.9,0.9c-1.6,0.3-2.9,0.4-3.9,0.4c-1.1,0-1.7-0.2-1.8-0.5c-0.1-0.4-0.3-0.8-0.4-1.3
		c-0.1-0.5-0.2-1-0.3-1.6c0-0.2-0.2-0.4-0.4-0.6s-0.4,0.1-0.7,0.9c-0.3,1.1-0.9,1.9-1.6,2.6c-0.8,0.8-1.7,1.4-2.6,1.7
		c-0.9,0.4-2.1,0.6-3.5,0.8l2.8-49.2h44.3c0.7,1.6,1.1,2.9,1,4c0,1.3-0.5,2.4-1.3,3.4c-0.8,0.9-1.9,1.4-3.3,1.4h-30.7
		c-0.5,0-1,0.2-1.5,0.6c-0.5,0.4-0.9,1.3-1.1,2.5c-0.1,0.5-0.1,1.2-0.2,2.2c-0.1,1-0.1,1.9-0.2,2.7c0,0.8,0.1,1.4,0.5,1.9
		s0.8,0.8,1.2,0.8h35.1c0.8,1.5,1.2,2.9,1.1,4.2c-0.1,0.8-0.3,1.5-0.6,2.1c-0.4,0.6-0.8,1-1.3,1.1c-0.1,0.1-0.4,0.1-0.9,0.1
		c-0.1,0-0.3,0.2-0.3,0.5c-0.1,0.3-0.1,0.6,0.1,0.9c0.4,0.7,0.6,1.3,0.6,1.8c0,0.2-0.1,0.6-0.5,1.2c-0.4,0.5-0.7,1-0.9,1.4
		c-0.3,0.4-0.4,0.9-0.5,1.6C248.2,70.7,248.3,71.2,248.5,71.5z M214,32.4c-1.3-0.5-2.6-1.4-3.7-2.7c-1.1-1.4-1.8-3.1-2.1-5.4
		c-0.1-1-0.2-2.3-0.2-3.9c-0.1-1.6-0.1-3.4-0.1-5.2s0-3.5,0.1-5.1s0.2-2.7,0.3-3.4h10c0.5,0,0.9-0.2,1.3-0.7
		c0.4-0.5,0.6-0.9,0.7-1.3c0-0.2,0.1-0.6,0.1-1.2s0-1.4,0.1-2.4c1.8-0.2,3.2-0.2,4.3,0.2c1,0.4,1.8,1,2.3,1.8
		c0.3,0.5,0.5,1.1,0.6,1.8c0.1,0.2,0.2,0.6,0.5,1.1s0.7,0.7,1.3,0.7c0.6,0,1.1-0.2,1.4-0.6c0.3-0.4,0.5-0.8,0.5-1.2V1
		c1.9-0.2,3.3-0.2,4.4,0.2c1,0.4,1.8,1,2.3,1.8c0.2,0.2,0.3,0.5,0.4,0.9s0.2,0.7,0.3,1.1c0.1,0.4,0.3,0.8,0.6,1.1
		c0.3,0.3,0.7,0.5,1.2,0.5h10.2c0.1,0.7,0.3,1.8,0.4,3.3c0.1,1.6,0.1,3.3,0.2,5.2c0,1.9,0,3.7,0,5.4c0,1.7,0,2.9-0.1,3.8
		c-0.1,2.1-0.7,3.9-1.9,5.5c-1.2,1.6-2.6,2.6-4.4,3.1c-1.3,0.4-3,0.6-5,0.9c-2.1,0.2-4.3,0.4-6.7,0.5c-2.4,0.1-4.9,0.1-7.3,0
		s-4.7-0.3-6.7-0.6C217,33.2,215.3,32.8,214,32.4z M218.1,68.7c0-0.5,0.1-1.2,0.1-2c0-0.9,0-1.5-0.1-1.9s-0.2-0.7-0.4-1.2
		c-0.2-0.4-0.5-0.7-0.9-1c-0.4-0.2-0.8-0.1-1.3,0.1s-1,1-1.4,2.3c-0.1,0.4-0.2,1.1-0.3,1.9c-0.1,0.9-0.1,1.7-0.1,2.6
		c0,0.4,0.1,0.8,0.2,1.3c0.1,0.4,0.4,0.7,0.8,0.7c0.3,0,0.6,0,1.1,0c0.4,0,0.8-0.1,1.2-0.2s0.7-0.5,0.8-1
		C218,69.7,218.1,69.2,218.1,68.7z M218.7,13.2c-0.6,0-1.1,0.2-1.5,0.6c-0.3,0.4-0.5,0.8-0.5,1.1s0.2,0.7,0.5,1s0.8,0.4,1.4,0.4
		c0.6,0,1.1-0.1,1.4-0.4c0.3-0.2,0.5-0.7,0.5-1.4c0-0.7-0.2-1.1-0.7-1.2C219.3,13.3,219,13.2,218.7,13.2z M218.6,22.9
		c-0.6,0-1,0.2-1.4,0.5c-0.3,0.4-0.5,0.8-0.5,1.2c0,0.4,0.2,0.9,0.5,1.4s0.8,0.7,1.5,0.7c0.3,0,0.7-0.1,1.1-0.3
		c0.5-0.2,0.7-0.7,0.7-1.5s-0.2-1.3-0.5-1.6C219.7,23,219.2,22.9,218.6,22.9z M220,53.6c-0.8-0.1-1.5-0.7-2.2-1.8s-0.9-3-0.7-5.7
		h32.6c0.3,0.8,0.5,1.6,0.6,2.2c0.1,0.7,0.2,1.2,0.2,1.7c0,1.1-0.4,1.9-0.9,2.3c-0.6,0.4-1.2,0.7-1.8,0.9c-0.2,0.1-0.9,0.1-1.9,0.2
		c-1.1,0.1-2.4,0.1-4,0.1s-3.4,0-5.3,0s-3.8,0-5.6,0c-1.9,0-3.6,0-5.2,0s-2.9,0-3.9,0C220.8,53.6,220.2,53.6,220,53.6z M231.9,69.9
		c0.7-0.4,0.9-1.1,0.5-2c-0.1-0.3-0.4-0.8-1-1.5s-1.2-1.3-1.8-2c-0.6-0.6-1.1-1-1.5-1.1c-0.2-0.1-0.5,0-0.8,0.2s-0.5,0.7-0.6,1.5
		c0,0.2-0.1,0.7-0.1,1.3s0,1.3,0.1,1.9c0,0.6,0.2,1,0.6,1.3c0.3,0.3,0.7,0.5,1.1,0.6s1,0.1,1.8,0C231,70.2,231.6,70.1,231.9,69.9z
		 M229.5,12.8c-0.8,0-1.3,0.2-1.5,0.6c-0.1,0.4-0.2,0.7-0.3,1c0,0.4,0.1,0.8,0.4,1.3c0.2,0.4,0.7,0.6,1.4,0.6c0.7,0,1.2-0.2,1.5-0.5
		s0.4-0.8,0.4-1.4c0-0.5-0.1-0.9-0.3-1.2C230.8,13,230.3,12.8,229.5,12.8z M229.5,23c-0.8,0-1.3,0.2-1.5,0.7
		c-0.1,0.5-0.2,0.9-0.3,1.2c0,0.5,0.1,1,0.4,1.5c0.2,0.5,0.7,0.8,1.4,0.8c0.7,0,1.2-0.2,1.5-0.6s0.4-0.9,0.4-1.7
		c0-0.5-0.1-1-0.3-1.4S230.3,23,229.5,23z M240.3,13.2c-0.3,0-0.6,0.1-1.1,0.2c-0.5,0.2-0.7,0.6-0.7,1.2c0,0.7,0.2,1.1,0.5,1.4
		c0.4,0.2,0.8,0.4,1.4,0.4s1-0.1,1.4-0.4c0.3-0.3,0.5-0.6,0.5-1s-0.2-0.7-0.5-1.1C241.4,13.4,240.9,13.2,240.3,13.2z M240.4,22.9
		c-0.6,0-1,0.1-1.4,0.4s-0.5,0.8-0.5,1.6c0,0.8,0.2,1.3,0.7,1.5s0.8,0.3,1.1,0.3c0.6,0,1.2-0.2,1.5-0.7c0.4-0.5,0.5-0.9,0.5-1.4
		c0-0.4-0.2-0.8-0.5-1.2C241.5,23.1,241,22.9,240.4,22.9z M243,63.9c0.2-0.5,0.1-0.9-0.4-1c-0.3-0.1-0.5-0.2-0.9-0.2
		c-0.3,0-0.7,0.1-1.1,0.2c-0.2,0.1-0.4,0.2-0.5,0.3c-0.2,0.2-0.2,0.4,0.1,0.7c0.3,0.4,0.6,0.8,1,1.1c0.4,0.3,0.6,0.4,0.7,0.4
		c0.2-0.1,0.4-0.3,0.6-0.6S243,64.2,243,63.9z"/>
	<path class="st1" d="M305.3,4.6c0.1,0.6,0.2,1.9,0.2,3.9c0.1,2,0.1,4.5,0.1,7.4s0.1,6.1,0.1,9.5s0.1,6.8,0.1,10.2s0,6.6,0,9.6
		c0,3,0,5.6-0.1,7.7c0,2.1,0,3.6-0.1,4.4c0,0.9-0.1,2.1-0.2,3.7c-0.1,1.6-0.3,3.3-0.5,5.1c-0.3,1.9-0.6,3.7-1,5.5s-1,3.3-1.7,4.6
		c-1,1.8-2,3-3.1,3.7s-2.3,1.3-3.7,1.8c-0.3,0.1-1,0.2-2.2,0.3c-1.1,0.1-2.5,0.2-4,0.2c-1.6,0.1-3.2,0.1-5,0.1c-1.7,0-3.4,0-5.1,0
		c-1.6,0-3.1-0.1-4.3-0.2c-1.2-0.1-2.1-0.2-2.7-0.4c-0.3-0.1-1-0.3-1.9-0.5s-2-0.7-3.1-1.4c-1.1-0.8-2.2-1.9-3.1-3.6
		c-0.7-1.2-1.3-2.7-1.8-4.5s-0.8-3.8-1-5.9c-0.2-2.1-0.4-4.1-0.5-6s-0.1-3.7-0.1-5.2c0-1,0-2.8,0-5.4s0-5.7,0-9.2s0-7.2,0.1-11
		c0-3.8,0-7.4,0.1-10.9c0-3.4,0.1-6.4,0.1-8.8c0.1-2.4,0.1-4,0.2-4.7C261.1,4.6,305.3,4.6,305.3,4.6z M297.4,49.3
		c0-0.6,0.1-1.6,0.1-2.9c0-1.4,0-2.7,0-4.1c0-1.4-0.1-2.5-0.1-3.2c0-1.1-0.4-1.8-1.1-2.2s-1.3-0.6-1.9-0.6c-1.8,0.1-3.8,0.2-6.2,0.2
		c-2.3,0-4.7,0-7.2,0c-2.4,0-4.7,0-6.8-0.1c-2.1-0.1-3.7-0.1-4.9-0.3c0,2.7-0.1,5.4-0.1,8.1c0,2.7,0,5.1,0,7.1s0,3.5,0,4.2
		c0,0.5,0.1,1.1,0.3,1.8c0.1,0.7,0.4,1.1,0.8,1.4c0.4,0.3,0.8,0.3,1.4,0s1.1-0.7,1.5-1.4s0.5-1.2,0.2-1.7s-0.5-0.8-0.7-1.1
		c-0.3-0.5-0.6-1.1-0.8-1.9c-0.1-0.6-0.2-1.7-0.3-3.2c-0.1-1.6-0.1-3.2-0.1-5s0-3.9,0.1-6.4H294c0.1,2.4,0.2,4.4,0.2,6.1
		c0,1.7,0,3.3-0.1,4.8c0,0.6,0.1,0.9,0.3,0.8c0.2-0.1,0.5-0.3,1-0.8c0.4,0.7,0.8,1.2,1,1.7c0.2,0.4,0.4,0.4,0.7,0.2
		C297.2,50.7,297.3,50.1,297.4,49.3z M269.7,23.1c0,0.4-0.1,0.8-0.1,1.3s0,1.1-0.1,1.7c0,0.4,0.1,0.9,0.4,1.6c0.2,0.6,0.6,1,1.2,1.1
		c0.3,0.1,0.7,0.1,1.3,0.1c0.6,0,1.3,0,2,0s1.4,0,2,0s1,0,1.2,0c0.4,0,0.7-0.1,1-0.4c0.3-0.2,0.5-0.6,0.5-1.1s-0.1-0.8-0.4-0.9
		s-0.6-0.2-1.1-0.3c-0.5-0.1-1.1-0.1-1.9-0.1s-1.5-0.1-2.1-0.4c-0.6-0.2-1.1-0.6-1.7-1.1c-0.6-0.6-1-1.3-1.3-2.3
		c-0.1-0.4-0.3-0.6-0.5-0.5C269.9,22,269.7,22.4,269.7,23.1z M271.8,16.9c-0.2,0.2-0.3,0.5-0.2,0.9c0,0.4,0.3,0.6,0.6,0.6h5.8
		c0.5,0,0.8-0.1,0.9-0.4s0.2-0.6,0.2-0.9c0-0.8-0.4-1.3-1.1-1.3c-0.3-0.1-0.8-0.1-1.5,0c-0.7,0-1.3,0.1-2,0.1
		c-0.6,0.1-1.1,0.1-1.3,0.2C272.6,16.2,272.2,16.5,271.8,16.9z M275,69.7c0.7,0.1,1.2-0.1,1.6-0.5c0.4-0.5,0.6-1.1,0.7-1.8
		c0.1-0.7,0.2-1.2,0.1-1.7c0-0.7-0.2-0.9-0.5-0.9c-0.3,0.1-0.6,0.2-0.8,0.3c-0.6,0.4-1.2,0.8-1.7,1c-0.5,0.3-0.9,0.6-1.3,0.9
		c-0.5,0.3-0.6,0.7-0.3,1.1c0.3,0.4,0.5,0.7,0.8,0.9c0.3,0.1,0.5,0.2,0.7,0.4C274.6,69.6,274.8,69.7,275,69.7z M280.6,51.3
		c0.3,0.1,0.6,0.1,1.2,0.2c0.5,0.1,1.1,0.1,1.6,0c0.6,0,1-0.1,1.3-0.1c1-0.2,1.6-0.8,1.8-2c0.1-0.4,0.1-0.9,0.1-1.4s-0.1-1-0.1-1.4
		c0-0.3-0.2-0.6-0.6-0.9c-0.4-0.3-0.7-0.5-1-0.6c-0.6-0.1-1.2-0.2-2-0.2s-1.4,0.1-2.1,0.2c-0.3,0.1-0.6,0.2-0.9,0.5
		s-0.5,0.7-0.6,1.3c-0.1,0.7-0.1,1.5,0,2.4C279.5,50.2,279.9,50.9,280.6,51.3z M289,70.2c0.5-0.2,0.7-0.5,0.5-0.9s-0.4-0.9-0.7-1.5
		c-0.7-1.2-1.5-1.9-2.4-2.1c-0.3-0.1-0.6,0-0.9,0.3s-0.6,0.7-0.6,1.2c-0.1,0.5-0.2,1.1-0.1,1.8c0,0.7,0.3,1.1,0.7,1.3
		c0.5,0.1,1.1,0.1,1.8,0.2C287.9,70.4,288.5,70.3,289,70.2z M288.6,15.7c-0.4-0.1-0.6,0-0.8,0.3c-0.2,0.3-0.2,0.6-0.2,0.9
		c-0.1,1,0.3,1.4,1.2,1.3h6.3c0.7,1,1.1,2.1,1.2,3.2s-0.1,2.1-0.5,2.8c-0.4,0.8-1,1.2-1.7,1.4c-0.4,0.1-0.9,0.1-1.6,0.2
		s-1.4,0.1-2.1,0.2s-1.2,0.1-1.6,0.2c-0.5,0.1-0.9,0.5-1.1,1.3c0.3,0.8,0.6,1.2,1.1,1.4c0.2,0.1,0.6,0.1,1.3,0.1c0.6,0,1.3,0,2.1,0
		c0.8,0,1.4,0,2.1,0c0.6,0,1.1-0.1,1.3-0.1c0.5-0.1,0.9-0.6,1.2-1.3c0.3-0.7,0.4-1.4,0.4-1.8c0-1-0.1-1.9-0.1-2.7c0-0.8,0-1.4,0-1.8
		c-0.1-1.6-0.3-2.7-0.6-3.3c-0.3-0.6-0.7-1-1.1-1.3c-0.4-0.2-0.9-0.4-1.3-0.6c-0.1-0.1-0.4-0.1-0.9-0.1s-1.1-0.1-1.7-0.1
		s-1.2-0.1-1.7-0.1C289.1,15.7,288.8,15.7,288.6,15.7z M291.4,57c0.1-0.4,0-0.7-0.3-0.9s-0.6-0.3-1-0.2c-0.2,0.1-0.4,0.1-0.6,0.1
		s-0.4,0.2-0.6,0.6c-0.2,0.4-0.2,0.8,0,1.1s0.4,0.5,0.7,0.6c0.3,0.1,0.5,0.2,0.7,0.2c0.3,0,0.5-0.1,0.7-0.5
		C291.2,57.7,291.3,57.4,291.4,57z M296.8,62c0.1-0.6,0.1-1.2-0.1-1.7c-0.1-0.5-0.2-0.7-0.4-0.4c-0.1,0.2-0.3,0.5-0.4,0.8
		s-0.3,0.5-0.4,0.8s-0.3,0.6-0.3,1.1c-0.1,0.5,0,0.9,0.2,1.2c0.4,0.5,0.6,0.6,0.8,0.4c0.2-0.2,0.3-0.5,0.4-1
		C296.7,62.6,296.8,62.3,296.8,62z"/>
</g>
</svg>
