<svg xmlns="http://www.w3.org/2000/svg" viewBox="0 0 1920.5 316.55"><path d="M972.24,316.05c-3.22,0-6.44,0-9.74-.05-114.56-1.19-182-22.87-253.36-45.82S556.58,221.13,414.54,211c-36.18-2.58-73-3.89-109.42-3.89A1583.71,1583.71,0,0,0,1,236.89L.5.5h1919l.5,238.39a1553.81,1553.81,0,0,0-295.31-28.56c-23.68,0-47.64.56-71.21,1.67-150.92,7.09-239.52,34.39-317.68,58.48-76,23.43-147.85,45.57-263.49,45.57Z" transform="translate(0 0)" fill="#52ba5a"/><path d="M1919,1l.5,237.29a1554.19,1554.19,0,0,0-294.81-28.46c-23.68,0-47.65.56-71.24,1.67-67.49,3.17-128.18,10.59-185.56,22.68-50.59,10.67-92.09,23.46-132.23,35.83-38.85,12-75.55,23.28-117.29,31.69-46.89,9.45-93.3,13.85-146.06,13.85-3.27,0-6.48,0-9.8-.05-52.3-.54-97.49-5.17-142.22-14.56-39.88-8.37-74.43-19.48-111-31.24-71.53-23-152.62-49.06-294.72-59.2-36.19-2.58-73-3.89-109.45-3.89A1584,1584,0,0,0,1.5,236.29L1,1H1919m1-1H0L.5,237.5a1577.6,1577.6,0,0,1,304.62-29.89c34.91,0,71.44,1.18,109.38,3.89,284.15,20.26,318.86,102.61,548,105,3.32,0,6.56.05,9.81.05,235.35,0,284.42-90.11,581.19-104q36.64-1.73,71.19-1.67A1548.15,1548.15,0,0,1,1920.5,239.5q-.26-119.75-.5-239.5Z" transform="translate(0 0)"/></svg>