<?xml version="1.0" encoding="utf-8"?>
<!-- Generator: Adobe Illustrator 24.3.0, SVG Export Plug-In . SVG Version: 6.00 Build 0)  -->
<svg version="1.1" id="レイヤー_1" xmlns="http://www.w3.org/2000/svg" xmlns:xlink="http://www.w3.org/1999/xlink" x="0px"
	 y="0px" viewBox="0 0 432.7 405.2" style="enable-background:new 0 0 432.7 405.2;" xml:space="preserve">
<style type="text/css">
	.st0{fill-rule:evenodd;clip-rule:evenodd;fill:#FFFFFF;}
	.st1{fill:#FFFFFF;}
	.st2{fill:#9DC814;}
	.st3{fill-rule:evenodd;clip-rule:evenodd;fill:#006934;}
	.st4{fill-rule:evenodd;clip-rule:evenodd;fill:#C9BC9C;}
	.st5{fill:#C9BC9C;}
	.st6{fill-rule:evenodd;clip-rule:evenodd;fill:#45B035;}
	.st7{fill:#E83828;}
	.st8{fill:#006934;}
	.st9{fill:#EAE4D1;}
	.st10{fill:#DAE000;}
	.st11{fill-rule:evenodd;clip-rule:evenodd;fill:#F39800;}
	.st12{enable-background:new    ;}
</style>
<path class="st0" d="M407,193L407,193c-1.4-1.7-3.2-3.1-5.3-4c-3.5-4.3-7.2-8.4-11.1-12.2c0-0.4-0.1-0.8-0.1-1.2
	c-0.6-4.3-2.3-8.4-4.8-11.9c2.3-6.1-0.8-12.8-6.9-15.1c-1.7-0.6-3.5-0.9-5.2-0.7c-1.5,0.1-3,0.4-4.5,0.8c-0.5-0.3-1.1-0.5-1.6-0.8
	c0-1.4-0.3-2.7-0.8-4c5-4,9.2-7.7,10.9-10l0.6-0.8c2-2.6,6.6-8.6,3.2-15.9c-2.9-6.3-8.9-7.5-13.9-7.6c-0.3-3.4-2.1-6.6-4.8-8.6
	c-1.8-1.3-3.9-2.2-6.1-2.5c2.5-3.5,4-7.6,4.2-11.9c1.4-0.3,3-0.6,4.6-0.9c9.6-2,16.1-8.4,17.4-17c1.2-8.2-2.8-16.9-9.5-20.6
	l-0.7-0.4c2.3-3.4,3.8-7.3,4.5-11.4c1-7.1-1.2-14.3-6-19.6c-6.2-6.9-15.6-10-24.6-8.1c-0.8,0.2-1.6,0.3-2.4,0.6
	c-1.2-1.6-2.6-3.1-4.2-4.3c-5.3-4.2-12.1-5.9-18.7-4.6c-8.3,1.4-14.1,7.1-18,12.8c-1.4-0.3-2.9-0.4-4.4-0.3
	c-8.5,0.6-13.7,7-16.3,14.5c-3.3,1.1-6.4,2.9-9,5.3c-4.2,4.1-5.4,9.7-5.3,15c-3.9,2-7.5,4.7-10.4,8c-3,3.5-4.4,8-4,12.6
	c0.7,7.3,5.7,13.1,10.1,17.1c-0.8,1-1.8,2.1-3,3.4c-6.5-0.7-13,0.5-18.9,3.2c-1.1-3.7-3.1-7.1-5.8-9.9c0.2-6.2-2.4-12.2-7.2-16.2
	c-3.5-2.8-7.8-4.5-12.2-4.7c-2.3-2.8-5.3-5-8.6-6.5c-4.5-2-9.6-2.6-14.5-1.5c-2.4-1.4-5.1-2.2-7.9-2.4c-4.9-0.3-9.8,1-14,3.6
	c-4.5-0.6-9.1,0.1-13.2,2.2c-4.6,2.2-8.5,5.7-11.2,9.9c-7.5,1.3-13.8,6.1-17,13c-1.8,3.9-2.5,8.3-2,12.6c-2.4,2-4.3,4.5-5.6,7.3
	c-9.3-0.2-18.4,2.1-23.9,4.9c-15.6,7.8-22.8,19.6-24.1,31.1c-2.8-1.2-5.3-2.9-7.3-5.1c-0.4-0.9-0.9-2.3-1.2-3.1
	c-0.6-1.4-1-2.6-1.6-3.7c-0.9-1.8-2.8-5.6-13.2-10.3c-5.9-2.7-12.9-0.1-15.6,5.9c-0.2,0.4-0.3,0.8-0.4,1.1
	c-4.9,2.7-7.2,8.4-5.6,13.8c0.6,2,1.4,4,2.2,5.9c1.5,3.6,4.9,12,4.7,15.6c-0.1,1-0.8,4-1.3,6.3c-1.6,7-3.9,16.9-3.8,26.8l-0.2,0.2
	c-2.1,0.9-3.9,2.3-5.3,4C8.9,213.8,0,237.5,0,261.4c0,39.4,23.2,76,65.3,103.2c40.5,26.1,94.2,40.5,151.1,40.5s110.5-14.4,151-40.5
	c42.1-27.2,65.3-63.8,65.3-103.2C432.7,237.5,423.8,213.8,407,193z"/>
<ellipse class="st1" cx="216.4" cy="255.1" rx="199.6" ry="129.6"/>
<path class="st2" d="M228.5,109.6c-0.6-1.6-1.8-2.9-3.4-3.6c1.4-2,2.2-4.4,2.4-6.9c0.3-3.4-1.1-6.7-3.8-8.8
	c-1.6-1.2-3.4-1.7-4.7-1.2c-0.2,0-0.4,0-0.6-0.1c0-0.2,0.1-0.3,0.1-0.5c3-6.3,2.6-9.2,0.8-11.8c-0.9-1.4-2.4-2.2-4-2.3
	c-4-0.5-9.1,2.4-10.8,4c-0.5,0.5-1.1,0.8-1.8,0.8l0,0c0-0.2,0.1-0.4,0.2-0.6c1.1-2.3,2.7-6.7,1.3-10.2c-0.8-1.8-2.3-3.2-4.2-3.8
	c-1.6-0.6-3.5-0.5-5,0.3c-3.9,2-5.8,7.6-6.2,8.7c0-0.1,0-0.2,0-0.4c0-2.2-0.2-7.6-2.9-10c-0.9-0.9-2.2-1.3-3.5-1.2
	c-4.9,0.5-5.4,7.1-5.7,9.9v0.6c-0.1,0.8-0.7,1.5-1.5,1.7c-0.2-0.4-0.5-1.1-0.7-1.6c-1-2.3-2.3-5.5-5.1-5.8c-2-0.2-4,1.4-5.2,2.8
	c-2.4,2.6-4.6,6.9-4.1,9.9c0.1,0.6,0.2,1.2,0.2,1.9c-6.8-2.3-11.7-1.1-14,3.2c-2.4,4.6,0.6,7.9,2.2,9.7c0.3,0.3,0.6,0.6,0.9,1
	c0.1,0.1,0.1,0.2,0.2,0.3h-0.1c-6.2,2.2-9.6,5.6-9.3,9.4c0.4,4.2,5.1,7.4,12.3,8.5c0.7,0.1,1.4,0.2,2,0.2l0.8,0.1
	c-0.1,0.3-0.4,0.8-0.8,1.7c-1.9,3.6-2.4,6.4-1.5,8.7c0.8,1.9,2.3,3.4,4.3,4c3.4,1.3,7.7,1.1,11.1,0.9c1.3-0.1,2.6-0.2,3.9-0.1
	l0.2,0.4l0.8,0.1c0.2,0,0.4,0.1,0.5,0.2c1.1,1.4,5.1,13.8,8.4,25l0.3,0.9l0.9,0.2c3.4,0.7,6.9,1.1,10.4,1.1c4.2,0,8.8-0.6,11.7-2.9
	c3.2-2.4,2.6-8.4,2-15.4v-0.3c-0.7-7.3-1.9-15.1-2.3-17.9c0.3-0.2,0.7-0.4,1.1-0.5c0.1,0.3,0.1,0.7,0.2,1.3l0.2,1.1l1.6,0.2
	c3.5,0.5,11.2,0.5,11.2,0.5c2.6-0.3,6.6-1.9,7.7-3.9C229.2,116.3,229.6,112.8,228.5,109.6z"/>
<path class="st3" d="M227.5,106.9c6.8-4.9,4-19.8-5.1-20.5c6.7-12.8-6.5-18.5-13.3-13.1c1.2-9.2-12.6-14.2-18.3-7.3
	c-3.8-9.3-14.4-4-17,0.3c-7.9-6.2-18.9,3.6-18.9,10.2c-15.4-2.7-19.3,13.5-12.2,19.4c0,0-7.8,2-9.9,6.7s5.3,11.4,16.7,13.5
	c-4.5,7.1-1.6,10.7,0.4,13.8c2.4,3.7,9.4,5.3,17.9,1.9c0.7-0.3,1.5-0.7,2.3-1.1c3.2,5.2,9.8,18.4,9.9,22.2
	c0.3,9.2,22.4,4.5,22.4,4.5s8.6-6.6,8.8-11.4c0.2-3.5-1.5-15-2.6-21.9c3.9,0.6,8,2.4,15.4-0.8C234.2,119.2,230.6,109.6,227.5,106.9z
	 M218,121.6c-4.6,0.6-6.3-0.2-9.7-0.6c-0.2-1-0.3-1.8-0.4-2.1c-0.4-1.8-4.2,0.8-4.2,0.8s1.6,9.8,2.4,18.8c0.6,6.4,1.2,12.4-1.4,14.3
	c-6.1,4.7-20.9,1.5-20.9,1.5s-7-23.8-8.8-25.6c-0.4-0.4-0.9-0.6-1.4-0.7c-0.8-1.8-10.2,1-15.8-1.2c-4.8-1.9-4.4-5.9-2-10.5
	s0.6-3.7-3.1-4.2c-13-2-15.2-10.6-2.8-14.9c1.7-0.6,1.7-1,0.7-2.7s-5.5-4.5-3.1-9.2s8.3-4.1,13.7-1.9c0,0,0.9-0.4,0.2-4.2
	s4.5-11.2,7.6-10.9s4.1,7.3,5.5,7.4c1.8,0.1,3.4-1.3,3.6-3.1c0.2-2.1,0.4-8.7,4.3-9s4.6,6,4.6,9.5s2.8,4.1,2.8,4.1
	c0-1.1,0.1-2.1,0.3-3.2c0.4-1.3,3.6-10.2,9.2-8.2s3.6,8.5,2,11.9s2.1,3.5,4.1,1.6s9.8-6,12.4-2c1.4,2.1,1.9,4.4-0.9,10.3
	c-1.2,2.4,1.4,3.1,2.4,2.8c2.1-0.7,6.9,2.8,6.4,8.4S222,107,222,107s2.7,0.8,4.3,4.6S224.5,120.8,218,121.6z"/>
<path class="st3" d="M203.2,89.8c-1-3.9-6.4-13.5-19.6-4.5c-5.5-3.3-15.6,0.6-14.4,7.1c0,0-12.2,0-6.7,12.3c0,0-9.7,10.2,1.1,15.3
	c5,2.4,17.6,5.2,17.6,5.2s3.7,15.2,4.8,18s2.5,0,2.5,0s-3.4-18.4-4.1-20.2c-0.7-1.6-16.1-2.8-20.8-7.9c-1.5-1.7-1.1-5.8,3.4-8.7
	s-4.9-7.3-2-9.5c1.4-1,5.5,1.4,7.4-0.5s-1.5-7.8,3.9-8.6s6.2,4.1,8.1,2.4c4.6-4.5,8.2-4.8,10.4-3.9c6.3,2.5,1.1,9.1,4.4,7.8
	c5.9-2.3,9.4,1.7,9.8,4.4c0.4,2.3-5,3.8-4.3,7.1c0.8,4.2,6.5,3.7,2.3,10.9c-1.9,3.3-6.6,4.4-10.2,4.4c-2,0-1.3,1.9-0.4,2.1
	c8,1.7,11,1.2,13.6-1.2s7.1-10.4,0.2-17C217.7,100.3,215.4,86.6,203.2,89.8z"/>
<path class="st4" d="M102.4,117.7c8.6-3.9,29.7-8.5,36.1,2.4s1.7,26.3-3.7,32.2s-19.2,11.6-31.3,6.1S80.3,127.6,102.4,117.7z"/>
<path class="st3" d="M140.8,118.3c-7.6-12.3-29.8-8.9-37.5-5c-29.6,15-18.1,45.6,1.8,48.5s30.4-7.9,34.3-12.6
	S148.4,130.7,140.8,118.3z M136.2,144.8c-9.3,24.3-34.2,11.3-37.8,7.3c-4.1-4.4-13.3-26.8,9.3-33.9S145.6,120.5,136.2,144.8z"/>
<path class="st3" d="M103.3,130.1c0,0-1.3,4.5-0.5,5s7.1,2.6,8.4-0.3S103.3,130.1,103.3,130.1z"/>
<path class="st5" d="M129.4,146.1c6.3-5.4,20.9-9.1,35.9-4s29.5,17.1,16.2,39.2s-40.6,12.6-48.3,5.2S110.7,162.2,129.4,146.1z"/>
<path class="st3" d="M145.1,137.8c-24.9,2.8-28.2,18-28.4,27.9c-0.3,13.7,18.1,30,35.3,31.7s34.5-9.4,37.8-29.4S170,135,145.1,137.8
	z M183.6,167.1c0.4,11.8-8.5,23.3-30.5,23.5s-32.9-24.2-27.5-34c2.6-4.7,9.6-15.1,27.8-14S183.1,155.3,183.6,167.1z"/>
<path class="st3" d="M144.6,174.9c0,0,8.1,5.3,10,4.1s2.2-3.7,1.2-4.5S144.6,172.5,144.6,174.9z"/>
<path class="st3" d="M149.8,152.4c0,0,2.2-2.1,3.5-2.4s6.9,2.3,6.9,2.3c0.1,1-0.6,1.9-1.6,2c-0.1,0-0.3,0-0.4,0
	C156.1,154.3,149.8,152.4,149.8,152.4z"/>
<path class="st6" d="M368.2,123.3c-0.5-1-3.9-0.8-7-0.5c-4.7,0.4-15.5,4.1-21.5,6.9c4.3-4.7,9-10.2,9-10.2s4.7-4.6,4.9-6.9
	s-21.4-0.6-29,4c-2.1,1.3-5.3,7.3-5.3,7.3s-28.1,17.5-47.7,30.5l-60.1,45c0,0,1.1,4.7,8.9,6.3c7.2,1.5,11.8-2.6,17.3-5.7
	c0.1,0.3,0.2,0.5,0.4,0.7c2,2.4,9.7,9,16.9,7.1c3.1-0.8,8.8-4.2,11.5-6.1c0,1.1,0.3,4.3,1.2,4.9c3,2.3,8.1,4.7,12.5,3.3
	s25.5-15.1,25.5-15.1l29.8-25.6c4.7-3.7,19.6-18.5,17.9-21.2c-0.4-0.6-2.5-0.7-5.6-0.4c-4.7,0.7-9.3,1.6-13.9,2.9
	c10.9-6.1,27-19.3,29.3-22.4C364.3,126,368.6,124.2,368.2,123.3z"/>
<path class="st3" d="M216.4,194.8c-3.4,1-6.2,4.6-6.2,4.6s1.7,6.1,9.8,7.8s12.9-3.5,19.4-6.9s90.1-64.2,90.1-64.2
	c17-5.9,21.9-19.8,21.9-19.8s4.8-4.8,5-7.3s-21.1,1-29.7,4.2s-10.8,10-10.8,10s-23.3,16.2-43.4,29.9c-2.7,1.9,4.3,1.7,10.3-2.3
	c17.3-11.6,36.8-23.3,37.2-23.9c0.8-1,3.2-4.9,4.5-7s14.1-7.8,19.9-5.7c1,0.4-5.4,11.2-14.6,16.8c-9.3,5.6-11.8,7.6-15.2,9.3
	s-69.3,49.4-81.9,55.4S216.4,194.8,216.4,194.8z"/>
<path class="st3" d="M340.2,128.6c6.2-4.1,17.6-8,23.9-8.6c3.1-0.3,6.7-0.4,7.2,0.6s-1.3,3-2.7,4.8c-2.6,3.6-22.7,19-33.5,24.5
	c0,0-0.8-1,1.9-2.6s17-14,19.4-17s3.2-4.4-2.4-3.9c-5.2,0.4-14.8,3.7-14.8,3.7"/>
<path class="st3" d="M321.8,155c0,0-55.2,39.9-61.2,43.8s-11.8,3.8-13.7,2c-2.2-2.1-3.9-3.8-4.1-4.3c-0.7-2.5-6.8,3.1-4.7,5.6
	s9.9,9.5,17.3,7.5s12.3-8,20.4-14.2s39.2-30.4,41.7-32.3S328,152.6,321.8,155z"/>
<path class="st3" d="M334.9,149.3c2-1.2,9.9-2.8,15.4-3.4c3.2-0.3,5.4-0.2,5.8,0.5c1.8,2.8-13.5,18.4-18.3,22.3s-3.1,0.1-0.7-2.5
	c3.4-3.5,5.8-7.8,7.1-12.5c0-1.8-7.1-4.8-10.4-3.2"/>
<path class="st3" d="M302.2,193.2c0,0-17.5,11.8-21,13.2s-13.4-1-14.1-4.7s-4.8,3.7-1.8,6.1s11.4,5.4,15.9,3.8s26.1-15.9,26.1-15.9
	L302.2,193.2z"/>
<path class="st3" d="M281.1,188.6c4.1-0.3,12.8,0.4,7,8.4c0,0,10-6.8,11.1-8.6s-17.7-0.6-17.7-0.6"/>
<path class="st3" d="M310.4,154.5c4-1.2,12.6-2.3,8.5,6.8c0,0,8.4-8.7,9.1-10.7s-17.5,3-17.5,3L310.4,154.5z"/>
<path class="st3" d="M270.2,157.9c4-1.2,12.6-2.3,8.5,6.8c0,0,8.4-8.7,9.1-10.7s-17.5,3-17.5,3L270.2,157.9z"/>
<path class="st7" d="M305.4,203.2c-0.7-11.2,1.1-22,9.7-26.1s22.3-4.6,27.7,6.1s3.2,22.7-0.6,27.2
	C331.7,222.6,306.3,216.8,305.4,203.2z"/>
<path class="st3" d="M348,187.6c-3.8-13.4-18.5-16.2-28.6-14.3c-11.9,2.3-19.7,16.7-17.3,28.9s19.6,19.6,32.9,15
	S351.8,201.1,348,187.6z M332.4,214.4c-11.5,3.3-21.6-2.9-23.7-15c-2.1-12.3,1.5-18.6,10.7-21.9c6.7-2.4,16.4-1,22.2,9
	S344,211.1,332.4,214.4L332.4,214.4z"/>
<path class="st8" d="M330,188.2c0.7-2.5,1.1-5.7-0.7-7.9c-0.5,1.8-1.1,3.6-1.9,5.4c-1.4-2.9-3.9-6.5-7.2-6.4c4.9,7,3.4,13,3.2,13.7
	v0.1c0.7,2.6,3,1.4,3.9,1.2c3-4.2,13.6-5.4,13.6-5.4C337.4,187.4,333.6,187.2,330,188.2z"/>
<path class="st7" d="M362.8,165.4c8.1-0.6,16.8,5.2,14.8,14.9s-9.2,11.3-17.5,11.3c-6.8,0.1-12.4-5.3-12.5-12.1
	c0-1.6,0.3-3.2,0.9-4.7C351.8,165.8,359.7,165.7,362.8,165.4z"/>
<path class="st8" d="M379.5,176c-1-6.8-5.8-10.9-11.8-12.4c2.5-2.8,7.6-5.4,7.6-5.4c-3.2,0.4-6.2,1.5-8.8,3.2
	c-0.2-1.9-1.5-3.6-3.4-4.1c0.3,1.2,0.4,2.4,0.4,3.6c-2.1-1.1-5.4-2.3-8-1.2c2.1,0.7,3.9,1.8,5.5,3.3c-0.7,0-1.4,0.1-2,0.2
	c-6,0.8-16.7,7.9-14.3,19.4c2.2,10.9,15.8,12.6,22.1,11.8C375.8,193.2,381,185.9,379.5,176z M365.1,189.4
	c-8.4,0.8-15.3-2.6-15.6-7.1c-0.5-5.7,2.5-11.2,7.6-13.9c5.5-2.8,16-0.9,18.2,5.5c2,6.3-1.5,13-7.8,15
	C366.8,189.1,365.9,189.3,365.1,189.4z"/>
<path class="st9" d="M51.9,129.5c0,0,2.1,14.1,14.7,17.2s27.4,1.2,33.5,1.9s24,3.1,26.5,17.5c2.5,14.4-12.2,32.7-28.5,40
	s-46.7,9.7-52.6-11.9s6.8-31.4,5-41.7s-8-19.5-8-19.5L51.9,129.5z"/>
<path class="st8" d="M122.5,153.8c-7.7-8.4-34.2-6.3-42.1-6.7s-14.4-1.8-23.2-10.6c-1.5-1.4-3.3-7.2-4.2-9s-7.6-4.8-7.6-4.8
	s1.4,5.1,3.4,10.4c1.8,4.7,7.2,12.7,14.5,15.7c29.2,24.7,29.8,48.5,28.9,56.8c-1.6,0.6-3.2,1.2-4.9,1.6c-6.7-4.4-20.2-14.2-25-24.8
	c-6.1-13.6-6.1-30.6-9.6-33.6c-1.2-6.1-5.8-13.3-8-15.9c-2.5-3-5.1-4.3-4.8-3.4c1.1,4,8,17,7.3,25.7s-12.9,39.9,3.2,51.8
	c12.7,9.4,24.1,11.1,36.5,6.7l-6.6,9.7c0,0,5.9,1.3,8.4-2c1.9-2.5,4.1-8.2,5-10.7l0.7-0.4c0.6,2.3,2.4,8.3,5,9.8
	c3.3,1.8,4.3,1.3,3.7-0.4c-0.5-1.4-2.4-9.4-3.1-12.7l0.5-0.3l0,0c2,2.6,7.4,9.3,10.1,10.2c3.3,1.2,8.5,1.7,5.8-1
	c-2.6-2.6-9.4-11.1-10.3-12.1c8.1-4.3,19.6-12.2,23.2-26.2C130.9,171.1,132.2,164.4,122.5,153.8z M68.2,150
	c4.7,0.7,9.4,1.1,14.1,1.2c31.1,9.5,25.5,37,21.8,48c-2.6,1.7-5.2,3.2-8,4.6c-0.4,0.2-0.8,0.4-1.2,0.5
	C100.5,165.8,80.8,156.6,68.2,150z M48.2,189.6c-1.8-16.5,5-31.9,4.8-38.4c0-0.6-0.1-1.2-0.2-1.7c3.4,8.2-4.1,45.5,25.7,59.2
	C62.5,210,49.5,201.8,48.2,189.6z M108.8,195.7c8.4-23.8,0-38.3-22.9-44.6c8.3,0,15.9-0.4,20.3,0.4c7.9,1.4,16.1,7.9,17.8,15.6
	C125.4,173.3,121.7,185.3,108.8,195.7z"/>
<path class="st10" d="M365.9,63.2c-0.9-2.2-7.5-5.2-21.5-9.6c-1.7-0.5-2.7-1.5-2.7-2.6c-0.1-1.6,1.7-3.6,4.4-4.7
	c10-4.2,11.8-12.3,12.1-14.6c0.4-3.1-0.2-5.8-1.7-6.9c-3.1-2.4-5.8-3.4-8.3-2.9c-3.8,0.7-6.1,4.5-8.2,7.9c-1.6,2.5-3,5-4.6,5l0,0
	c-0.5-0.2-0.9-3.3-1.1-5.2c-0.7-5.9-1.7-14.8-9.4-15.1h-0.3c-8,0-9,10.5-9.6,16.9c0,1.5-0.3,3-0.7,4.5c-3.3,1.3-5.4-0.8-7.5-3.1
	c-1.8-1.9-3.6-3.8-6.1-3c-1.5,0.5-1.9,2.7-2.4,5.3c-0.2,1.3-0.5,2.6-1.1,3.8c-0.7,1-4,1.6-6.3,2.1c-1.3,0.2-2.5,0.5-3.8,0.9
	c-0.4,0.2-0.7,0.5-0.8,0.8c-0.3,0.9,0.2,2.1,1.1,3.7c1.1,2.1,2.4,4.8,1.3,6.8s-4.9,3.3-8.6,4.4c-3,0.9-5.9,1.8-7.7,3.2
	c-0.8,0.6-1.2,1.5-1.1,2.5c0.3,4.5,10.5,11,12.5,12.3c1,0.5,1.7,1.4,2,2.4c0.4,2-1.7,4.8-4.3,8.2c-4.2,5.5-15.9,19.1-18.5,21.7
	l-0.6,0.6l10,7.5l0.5-0.5c7.6-7.5,10.8-8.4,10.8-8.4c0.1,0.2,3.1,5.9,12.2,5.8c5.9-0.1,6.1-4.9,6.3-8c0.1-2.5,0.3-3.7,1.3-3.8
	c4.7-0.6,7.7-2,9.2-4.3c1.9-2.8,1-6.4,0.4-8.7c-0.2-0.6-0.3-1.3-0.4-1.9h0.1c2.6,0.5,4.8,1,6.8,1.4c8.7,1.9,11.1,2.4,17.5-0.6
	c4.9-2.3,3.6-6.6,2.6-10.1c-0.7-2.5-1.4-4.8-0.2-6.4c1.7-2.2,9.3-3,15.5-3.6c6.7-0.7,10.3-1.1,11.1-2.6
	C366.1,64.1,366.1,63.6,365.9,63.2z"/>
<path class="st11" d="M154.6,215.3c0,0,54-71.2,67-85s28.2-32.3,40.1-29.4c11.9,2.9,22.6,14.4,22.6,21.8s0.9,13.6-12.7,25.4
	s-94.9,62.7-107.1,68.7S154.6,215.3,154.6,215.3z"/>
<path class="st3" d="M280,111.6c12.3,10.5,10,23.9-7.3,41.7c-16.4,16.9-97.8,61.4-109.6,67.4s-14.1-4.2-9.2-11s69.2-88.6,81-100.2
	s23.3-12.5,29.9-9.1l-3.2,3.9c0,0-5.5-1.8-15.7,5s-78.1,89.4-88.6,105.9c0,0,1.3,0.8,6.8-2.9s23.6-13.4,38.5-21.5
	s55.4-32.9,68.4-47.2c8-8.8,13.9-17.3,7.1-31.7L280,111.6z"/>
<path class="st3" d="M240.4,112.3c0.5,2.5,5.2,11,8.8,12.8s7.2,2.8,5.4-1.3s-10.4-9.2-13-12.4S240.4,112.3,240.4,112.3z"/>
<path class="st3" d="M233.1,146.4c2.7,0.3,7.2,4.2,9.2,6.9s7.1,5.2,7.5,5.2s-1.7,1.7-5.2,1.2c-3.8-0.6-7-3.2-8.5-6.8
	C233.7,148,230.9,146.2,233.1,146.4z"/>
<path class="st3" d="M203.9,163.3c1.1,2.6,7.3,9.6,8.4,10.2s-0.5,2.5-4.3,1.4s-5.6-4.7-5.6-10.3S203.9,163.3,203.9,163.3z"/>
<path class="st3" d="M282.7,108.9c17,18.9,25,1.3,24.8-4.5c6.6,0,11.9-6,12.5-10c0,0,15.7,4.5,24.9-2s2.1-17.4,2.1-17.4
	s4.8-0.2,16.6-2.7s8.8-13.6,4.6-15.9c-4.4-2.4-17.5-5.9-17.5-5.9c13.6-8.4,19.8-19.3,12.1-28.1s-21.9-3.5-24.2,2.9
	c-0.4-8.6-5-17.3-15.1-15.6s-15.1,18-15.1,18s-4.7-5.5-8.5-5.2c-6,0.4-7.3,12.7-7.3,12.7s-7.2,0.5-10.8,3.9s-0.4,14.1-0.4,14.1
	s-9.4,2.1-14.5,8.1s6,14.4,9.3,17.2s2.6,3.4,1.4,6.4s-18.2,21.5-18.2,21.5c-1.8,1.6,1.5,4.6,4.1,2s14.2-16.2,18.5-21.8
	s6.5-9.1,2.1-11.8s-15.2-10.3-11.3-13.5s14.3-3.7,16.5-7.9s-4.1-10.1-2-11s9-1.3,10.4-3.3s1.3-8.2,3-8.8c4.6-1.5,6.8,8.8,13.8,6
	c2.1-0.8-0.6-21.6,10.2-21.2s7.1,20.2,10.5,20.3c5.8,0.1,7.6-20.3,20.7-10.1c3,2.4,2.3,14.9-10.2,20.2c-5.2,2.2-6.9,7-1.5,8.8
	s22.4,7.1,20.9,9.9c-1.4,2.7-23,1.7-26.4,6.1s5.4,12.7-2.1,16.3s-8.9,2.1-23.7-0.9c-4.5-0.9,7.9,12.7-9.6,14.8
	c-4.3,0.5,1.3,11.7-7.5,11.8s-11.5-5.4-11.5-5.4L282.7,108.9z"/>
<path class="st3" d="M270.1,112.4c0,0,13.9-13.5,22.8-22.2c2.8-2.8,7.7-8.5,8.9-9.7c4.9-4.8,4.9-5.4,0.9-4.5
	c-1.3,0.3-7.9,7.1-12.7,11.6c-10.1,9.2-23.7,22.8-23.7,22.8C265.1,111.6,267.8,114,270.1,112.4z"/>
<path class="st3" d="M275.5,117.2c0,0,16.1-15.3,19.4-18.5s2.4-4.1-0.2-3.6s-22.5,20-22.5,20C271.5,115.9,274,118.2,275.5,117.2z"/>
<ellipse class="st7" cx="370.2" cy="204.7" rx="19.4" ry="18.1"/>
<path class="st3" d="M388.1,192.1c-7.5-8.8-21.5-7.8-28.9-4c-9.7,5-15,17.2-9.6,27.8s21.7,11.4,29.7,7.4
	C392.3,216.8,395.6,200.9,388.1,192.1z M371.7,218.2c-8.5,1.6-19.3-3.2-19.5-9.9s3.6-15.4,11.3-17.4c6.8-1.8,21.3,0.6,22.9,6.9
	S385.7,215.7,371.7,218.2z"/>
<path class="st3" d="M397.1,198.4c-1.2,0.1-2.1,1.1-2,2.3c0,0.4,0.2,0.8,0.4,1.1c9.9,15.4,15.4,32.4,15.4,50.3
	c0,71.1-87.1,128.8-194.5,128.8S21.9,323.3,21.9,252.1c0-17.8,5.5-34.8,15.4-50.3c0.7-1,0.4-2.4-0.6-3.1c-0.3-0.2-0.7-0.4-1.1-0.4
	l0,0c-0.6,0-1.2,0.3-1.5,0.8c-14.9,18.3-23.3,39.2-23.3,61.3c0,73.2,92,132.6,205.6,132.6s205.6-59.4,205.6-132.6
	c0-22.1-8.4-43-23.3-61.3C398.3,198.7,397.7,198.4,397.1,198.4z"/>
<g class="st12">
	<path class="st8" d="M86.3,246.7c0.1,1.6,0,3.2-0.4,4.9s-0.9,3.3-1.6,4.7c-0.7,1.4-1.6,2.4-2.6,3c-0.1-0.4-0.8-0.8-1.9-1.2
		c-1.1-0.4-2.5-0.7-4.1-1c-1.6-0.3-3.2-0.6-4.9-0.9s-3.2-0.7-4.5-1s-2.2-0.7-2.6-1.1c-1.2-1-2.2-2.6-3.1-4.8
		c-0.9-2.2-1.4-5.1-1.6-8.8c0.3,0.1,1,0.1,2.1,0.1c1.1,0,2.5,0,4.1,0c1.6,0,3.2,0,4.9-0.1c1.6-0.1,3.1-0.1,4.4-0.2
		c1.3-0.1,2.2-0.2,2.7-0.3c2.6-0.5,4.4-0.6,5.5-0.3c1,0.3,1.8,0.9,2.3,1.8c0.5,0.9,0.9,1.8,1.1,2.7
		C86.2,245.3,86.3,246.1,86.3,246.7z M83.4,285.9c0.9,0.9,1.6,2,1.9,3.3c0.4,1.3,0.5,2.7,0.5,4.1c0,1.7-0.2,3.2-0.7,4.6
		c-0.5,1.4-1,2.3-1.6,2.8c-0.8,0.6-2.1,1.1-4,1.5c-1.9,0.4-4,0.5-6.5,0.4c-2.4-0.2-4.7-0.7-6.8-1.4c-2.1-0.7-3.8-2.2-5.2-4.5
		c-0.6-1-0.9-2.4-1-4.2c-0.1-1.9,0-3.8,0.2-5.9c0.3-2.1,0.7-4,1.3-5.7c0.6-1.7,1.3-2.9,2.1-3.5c0.4,1.3,1,2.4,1.8,3.5
		c0.8,1.1,1.8,1.9,2.8,2.6c1,0.7,2,1.1,2.8,1.2c0.9,0.1,2,0.2,3.3,0.2c1.3,0,2.6,0.1,3.9,0.1c1.3,0.1,2.4,0.2,3.4,0.3
		C82.5,285.4,83.1,285.7,83.4,285.9z"/>
	<path class="st8" d="M115.9,285.1c0,0.3,0.2,0.8,0.4,1.5c0.2,0.7,0.5,1.2,0.9,1.6c-0.3,0.8-0.7,2-1.2,3.3c-0.6,1.4-1.2,2.7-1.8,3.9
		c-0.6,1.2-1.2,2-1.6,2.2c-0.6,0.4-1.4,0.5-2.2,0.4c-0.8-0.2-1.4-1.2-1.9-3c-0.3-1.3-0.6-2.9-0.8-4.8c-0.2-1.9-0.3-3.7-0.4-5.5
		c-0.1-1.8-0.1-3.9-0.2-6.3c0-0.4,0-1.4,0-3c0.1-1.6,0.1-3.4,0.2-5.6s0.2-4.4,0.3-6.7c0.1-2.3,0.2-4.4,0.3-6.4
		c0.1-1.9,0.2-3.5,0.2-4.6c0.1-1.9,0.1-3.8,0-5.9c-0.1-2.1-0.1-4-0.2-5.7c-0.1-1.7-0.2-2.8-0.3-3.3c2.6-0.1,4.6,0.6,6.1,2
		c1.5,1.5,2.3,3.6,2.5,6.5c0,0.9,0,2.2,0,3.8c-0.1,1.6-0.1,3.3-0.2,5.1c-0.1,1.8-0.2,3.5-0.3,5c-0.1,1.5-0.2,2.7-0.2,3.5
		c-0.1,2.2-0.2,4.8-0.2,7.6c0,2.8,0,5.6,0.1,8.2C115.5,281.6,115.7,283.6,115.9,285.1z M142.9,240.7c0.5,0.1,1.1,0.5,1.7,1.2
		c0.6,0.7,1.1,1.6,1.5,2.8c0.4,1.2,0.5,2.7,0.4,4.4c-0.1,2-0.7,3.5-1.7,4.5c-1,1-2.2,1.7-3.5,2c-0.3,0.1-0.5,0.3-0.6,0.8
		c-0.2,0.4-0.3,0.9-0.4,1.5c-0.1,1.4-0.2,3.2-0.2,5.1c-0.1,2-0.1,3.8-0.1,5.5c0,1.7,0.1,2.9,0.1,3.6c0.1,1.6,0.4,2.8,0.8,3.7
		c0.4,0.9,0.8,1.6,1.3,2.2c0.4,0.6,0.8,1.1,1.1,1.6c0.4,0.8,0.6,2.1,0.5,3.8c-0.1,1.7-0.4,3.1-1.1,4.1c-0.4,0.6-0.7,1.2-1.1,1.9
		c-0.3,0.7-0.5,1.6-0.6,2.9c-0.1,2.6-0.5,4.7-1.2,6.3c-0.6,1.6-1.3,2.9-2.1,3.9c-0.8,1-1.8,1.6-3,1.8c-1.2,0.3-2.5,0.4-3.8,0.5
		c-0.9,0-1.9-0.2-3-0.5c-1.2-0.3-2.3-0.8-3.3-1.4c-1.1-0.6-1.9-1.4-2.6-2.3c-1.5-2.1-2.2-5.2-2.2-9.3c0-0.8,0.2-2,0.4-3.5
		c0.2-1.5,0.5-2.7,0.8-3.6c0.9-2.8,1.8-4.8,2.9-5.9c1.1-1.1,2-2,2.7-2.6c0.7-0.5,1.6-1,2.6-1.3c1-0.3,1.9-1,2.5-2.1
		c0.5-0.8,0.8-1.5,0.8-2.1c0.1-0.6,0.1-1.2,0.1-1.9c0-0.5,0.1-1.2,0.1-2.1s0-1.9,0-2.8c0-1-0.1-1.7-0.1-2.2
		c-0.1-0.8-0.2-1.6-0.4-2.4c-0.2-0.8-0.6-1.6-1.2-2.3c-0.3-0.3-0.8-0.6-1.5-0.8c-0.7-0.2-1.5-0.4-2.3-0.6c-0.8-0.2-1.5-0.3-2-0.5
		c-0.8-0.2-1.4-0.7-2-1.5c-0.6-0.8-1-1.6-1.4-2.7c-0.4-1.1-0.5-2.2-0.6-3.5c0-1.3,0.2-2.5,0.5-3.6c0.1,0.1,0.4,0.2,1,0.3
		c0.6,0.1,1.2,0.2,2,0.3c0.8,0.1,1.5,0.1,2.2,0.1c0.7,0,1.3-0.1,1.8-0.2c0.3-0.1,0.6-0.3,0.8-0.5c0.3-0.2,0.5-0.7,0.6-1.4
		c0.1-0.8,0.1-1.9-0.1-3.6c-0.1-0.7-0.2-1.1-0.3-1.4c-0.1-0.3-0.2-0.6-0.3-0.8c1.2-0.8,2.3-1.2,3.4-1.4c1.1-0.2,2.1-0.1,2.9,0.2
		c1.8,0.6,2.8,1.7,3.1,3.4c0.1,0.7,0.3,1.5,0.6,2.5c0.3,1,0.7,1.5,1.1,1.7c0.4,0.1,0.8,0,1.2-0.4
		C142.6,241.8,142.8,241.3,142.9,240.7z M128.5,292.3c0.4,0.7,0.9,0.9,1.6,0.8c0.7-0.1,1.2-0.4,1.7-0.8c0.5-0.5,1-1.3,1.2-2.2
		c0.3-1,0.3-1.9-0.1-3c-0.1-0.5-0.5-0.7-1.1-0.7c-0.6,0-1.2,0.2-1.7,0.7c-0.8,0.7-1.4,1.5-1.7,2.6
		C128.1,290.8,128.1,291.7,128.5,292.3z M147.1,234.1c-0.3,0.4-0.5,1.1-0.5,1.9c0,0.8-0.3,1.7-0.9,2.5c-0.5,0.6-1,0.8-1.6,0.6
		c-0.6-0.2-1.1-0.8-1.5-1.7c-0.4-0.9-0.6-1.9-0.6-3c0-1.1,0.2-1.9,0.7-2.5c0.5-0.7,1.1-0.9,1.6-0.7c0.5,0.2,1,0.1,1.3-0.4
		c0.2-0.3,0.3-0.7,0.4-1.1c0-0.4,0.1-1,0.2-1.5c0.1-0.6,0.4-1.2,0.8-1.8c0.4-0.6,1-0.8,1.6-0.6c0.6,0.2,1.2,0.8,1.6,1.7
		c0.4,0.9,0.6,1.9,0.6,2.9c0,1.1-0.2,1.9-0.7,2.5c-0.4,0.6-0.8,0.9-1.2,0.9c-0.4,0-0.7,0-0.9-0.1S147.4,233.8,147.1,234.1z"/>
	<path class="st8" d="M201.6,258.1c0.5,2.1,0.7,4.5,0.8,7.2c0,2.7-0.1,5.3-0.3,7.9s-0.5,4.8-0.8,6.6c-0.5,2.6-1,4.4-1.7,5.5
		c-0.7,1.1-1.4,1.8-2.3,2.1c-0.8,0.3-1.4,0.3-1.8-0.1c-0.4-0.4-0.8-0.4-1.1,0l-1.2,1.4c-0.2,0.3-0.6,0.5-1.2,0.6
		c-0.6,0.1-1.2,0.1-1.7,0c-0.6-0.1-1-0.4-1.4-0.8c-0.9-1.2-1.6-2.7-2.2-4.4c-0.6-1.7-1-3.5-1.4-5.3c-0.3-1.8-0.6-3.4-0.8-4.8
		c-0.2-1.4-0.4-2.8-0.7-4.4c-0.3-1.6-0.6-2.9-1.1-4.1c-0.4-1.2-1-1.9-1.6-2.2c-1.3-0.7-2.3-0.5-3,0.5c-0.7,1-1.2,2.1-1.5,3.3
		c-0.3,1.2-0.4,2.5-0.5,4c-0.1,1.4-0.1,2.6,0.1,3.6c0.2,1.1,0.6,2.4,1.2,4c0.6,1.6,1.3,3.2,2.1,4.9s1.6,3.1,2.3,4.4
		c1.1,1.9,2.2,3.5,3.2,4.8c1,1.3,2,1.8,2.8,1.5c0.6,3,0.8,5.5,0.6,7.5c-0.2,2-0.7,3.5-1.4,4.6c-0.7,1.1-1.5,1.8-2.3,2.1
		c-0.6,0.2-1.3,0-2.2-0.5c-0.9-0.5-1.7-1.1-2.4-1.7c-0.9-0.9-1.9-2.4-3-4.4c-1.1-2-2.1-4.2-3.1-6.6c-1-2.4-1.9-4.6-2.6-6.6
		c-0.7-2-1.2-3.5-1.5-4.5c-0.5-1.9-1.4-3.2-2.4-4.1c-1.1-0.9-2.3-1.7-3.7-2.4c-0.4-0.2-1-0.8-1.8-1.8c-0.8-1-1.5-2.3-2.2-4
		c-0.7-1.7-1.1-3.7-1.2-6.1c1.4,0,2.6-0.6,3.6-1.7c1-1.1,1.8-2.3,2.3-3.6c0.6-1.3,1-2.2,1.3-2.8c0.2-0.5,0.4-1.3,0.6-2.5
		c0.2-1.2,0.3-2.5,0.3-4c0.1-1.5,0-3-0.1-4.4c-0.1-1.4-0.4-2.5-0.7-3.4c2.4-0.5,4.5-0.3,6.2,0.5c1.7,0.8,3,1.9,4,3.1
		c0.4,0.4,1.1,0.6,2.1,0.5c1-0.1,1.8-0.7,2.5-1.9c0.7-1.2,1.4-2.8,2-4.9c0.6-2.1,0.9-4.8,0.8-8.2c1.9-0.2,3.5,0.1,4.9,1
		c1.3,0.9,2.4,2.2,3.1,3.7c0.8,1.6,1.2,3.2,1.2,5c0,0.7,0.2,1.6,0.5,2.6c0.3,1,0.8,1.8,1.5,2.3c1.5,1.1,2.9,2.6,4.1,4.4
		C200.1,253.2,201.1,255.4,201.6,258.1z M194.4,276.9c0.4-0.1,0.7-0.6,0.8-1.5c0.1-1,0.2-2.2,0.1-3.6c0-1.4-0.1-2.9-0.3-4.4
		c-0.2-2-0.5-3.7-0.8-5.3c-0.4-1.5-0.8-2.2-1.3-2.1c-0.6,0.2-1.1,0.8-1.4,1.8c-0.3,1-0.4,2.2-0.4,3.6c0,1.4,0.1,2.8,0.4,4.2
		c0.3,2,0.7,3.8,1.2,5.3C193.2,276.3,193.8,277,194.4,276.9z"/>
	<path class="st8" d="M249.7,239c1.1,2.8,1.7,4.9,1.8,6.5c0.1,1.6-0.1,3.2-0.8,4.8c-0.5,1.1-1.1,2-1.8,2.6c-0.8,0.6-1.5,1-2.3,1.4
		c-0.9,0.4-1.5,1.2-1.7,2.3c-0.2,1.1-0.3,1.9-0.1,2.5c0.9,2.2,1.6,4.1,1.9,5.7c0.3,1.6,0.5,3.4,0.4,5.4c-0.1,2-0.4,3.8-0.7,5.5
		c-0.4,1.7-0.5,3.3-0.5,4.9c0.1,2.6,0.1,5.3-0.1,8.2c-0.2,2.9-0.5,5.8-1,8.6c-0.5,2.9-1.1,5.5-1.9,7.9c-0.3,0.9-0.8,1.7-1.4,2.5
		c-0.6,0.7-1.4,1.3-2.1,1.6c-0.8,0.3-1.5,0.3-2.2,0c-0.6-0.3-1.4-1-2.2-2c-0.8-1-1.5-2.1-2.1-3.2c-0.6-1.1-0.9-2-1-2.5
		c0.6-0.5,1.2-1.1,2-1.8c0.8-0.7,1.5-1.6,2.1-2.6s1.1-2.1,1.3-3.2c0.1-0.7,0.2-1.6,0.2-2.7c0-1.2-0.1-2-0.2-2.4
		c-0.2-0.7-0.6-0.9-1.2-0.7c-0.6,0.2-1.1,0.6-1.8,1c-0.6,0.5-1.2,0.8-1.7,1c-0.7,0.2-1.7,0.4-3.1,0.5c-1.3,0.1-2.6-0.3-3.8-1.2
		c-0.8-0.6-1.6-1.6-2.4-3.2c-0.8-1.5-1.4-3.3-1.9-5.4c-0.5-2.1-0.5-4.4-0.3-6.8c0.4-3.3,0.9-5.9,1.6-7.8c0.7-1.9,1.5-3.4,2.5-4.5
		s1.8-2,2.7-2.8c0.9-0.8,1.8-1.4,2.6-1.6c0.8-0.2,1.6-0.5,2.4-0.6c0.5-0.1,0.9-0.6,1-1.4c0.1-0.8-0.1-1.7-0.6-2.5s-1.4-1.2-2.6-1.1
		c-0.5,0-1.2,0.1-2.2,0.4c-1,0.2-2,0.5-3.2,0.7c-1.2,0.2-2.3,0.3-3.3,0.2c-1.1-0.1-1.9-0.5-2.5-1.1c-0.7-0.8-1.4-1.7-1.9-2.7
		c-0.6-0.9-1-2.2-1.2-3.8c-0.2-1.6-0.2-3.8,0.1-6.6c0.8,0.2,1.8,0.4,2.9,0.5c1.2,0.1,2.4,0.2,3.6,0.2c1.3,0,2.4,0,3.5,0
		c1.1,0,1.9-0.1,2.5-0.1c0.8-0.1,1.5-0.3,2.3-0.5c0.7-0.2,1.3-0.8,1.8-1.5s0.8-2,0.9-3.7c0.1-0.6,0.1-1.2-0.1-1.9s-0.2-1.3-0.3-1.9
		c1.2-0.2,2.4-0.1,3.6,0.3c1.2,0.4,2.2,0.9,3.1,1.7c0.9,0.7,1.4,1.5,1.7,2.2c0.4,1.1,0.8,2.1,1.4,3.2c0.5,1,1,1.8,1.6,2.1
		C246.4,240,247.9,239.9,249.7,239z M232.8,273.7c0.2-0.4,0.5-0.9,0.8-1.7s0.4-1.5,0.2-2.1c-0.2-0.7-0.4-0.9-0.6-0.9
		c-0.2,0.1-0.4,0.2-0.6,0.3c-0.1,0.1-0.3,0.3-0.6,0.7c-0.3,0.4-0.6,0.9-0.9,1.4c-0.3,0.5-0.5,1-0.6,1.4c-0.1,0.6-0.2,1.1-0.1,1.4
		c0.1,0.4,0.2,0.6,0.5,0.7c0.4,0.2,0.8,0.2,1.1-0.2C232.2,274.4,232.5,274.1,232.8,273.7z"/>
	<path class="st8" d="M307.6,297.2c0.2,0.2,0.6,0.6,1.2,1.2c0.6,0.6,1.2,1.2,1.9,1.8c0.7,0.6,1.5,1.4,2.5,2.3
		c-0.5,1.5-1,2.7-1.5,3.7c-0.5,1-1.1,1.8-1.7,2.6c-0.5,0.5-1.1,0.9-1.7,1c-0.6,0.1-1.3-0.2-2-0.9c-0.7-0.7-1.8-1.8-3.3-3.3
		s-3.1-3.2-4.9-5.1c-0.2-0.2-0.5-0.5-0.8-0.8c-0.3-0.3-0.6-0.3-0.9-0.2c-0.3,0.2-0.7,0.7-1.1,1.7c-0.4,0.8-0.8,1.6-1.3,2.2
		s-1.3,1.2-2.4,1.6c-0.7,0.2-1.7,0.6-3.1,0.9c-1.4,0.4-2.9,0.8-4.6,1.1c-1.7,0.4-3.3,0.7-4.9,0.9c-1.6,0.3-2.9,0.4-3.9,0.4
		c-1.1,0-1.7-0.2-1.8-0.5c-0.1-0.4-0.3-0.8-0.4-1.3c-0.1-0.5-0.2-1-0.3-1.6c0-0.2-0.2-0.4-0.4-0.6c-0.2-0.2-0.4,0.1-0.7,0.9
		c-0.3,1.1-0.9,1.9-1.6,2.6c-0.8,0.8-1.7,1.4-2.6,1.7c-0.9,0.4-2.1,0.6-3.5,0.8l2.8-49.2h44.3c0.7,1.6,1.1,2.9,1,4.1
		c0,1.3-0.5,2.4-1.3,3.4c-0.8,0.9-1.9,1.4-3.3,1.4h-30.7c-0.5,0-1,0.2-1.5,0.6c-0.5,0.4-0.9,1.3-1.1,2.5c-0.1,0.5-0.1,1.2-0.2,2.2
		c-0.1,1-0.1,1.9-0.2,2.7c0,0.8,0.1,1.4,0.5,1.9c0.4,0.5,0.8,0.8,1.2,0.8h35.1c0.8,1.5,1.2,2.9,1.1,4.2c-0.1,0.8-0.3,1.5-0.6,2.1
		c-0.4,0.6-0.8,1-1.3,1.1c-0.1,0.1-0.4,0.1-0.9,0.1c-0.1,0-0.3,0.2-0.3,0.5s-0.1,0.6,0.1,0.9c0.4,0.7,0.6,1.3,0.6,1.8
		c0,0.2-0.1,0.6-0.5,1.2c-0.4,0.5-0.7,1-0.9,1.4c-0.3,0.4-0.4,0.9-0.5,1.6C307.3,296.4,307.4,296.9,307.6,297.2z M273.1,258
		c-1.3-0.5-2.6-1.4-3.7-2.7s-1.8-3.1-2.1-5.4c-0.1-1-0.2-2.3-0.2-3.9c-0.1-1.7-0.1-3.4-0.1-5.2c0-1.8,0-3.5,0.1-5.1
		c0.1-1.6,0.2-2.7,0.3-3.4h10c0.5,0,0.9-0.2,1.3-0.7c0.4-0.5,0.6-0.9,0.7-1.3c0-0.2,0.1-0.6,0.1-1.2c0-0.6,0-1.4,0.1-2.4
		c1.8-0.2,3.2-0.2,4.3,0.2c1,0.4,1.8,1,2.3,1.8c0.3,0.5,0.5,1.1,0.6,1.8c0.1,0.2,0.2,0.6,0.5,1.1c0.3,0.5,0.7,0.7,1.3,0.7
		c0.6,0,1.1-0.2,1.4-0.6c0.3-0.4,0.5-0.8,0.5-1.2v-3.8c1.9-0.2,3.3-0.2,4.4,0.2s1.8,1,2.3,1.8c0.2,0.2,0.3,0.5,0.4,0.9
		c0.1,0.4,0.2,0.7,0.3,1.1c0.1,0.4,0.3,0.8,0.6,1.1c0.3,0.3,0.7,0.5,1.2,0.5h10.2c0.1,0.7,0.3,1.8,0.4,3.3c0.1,1.6,0.1,3.3,0.2,5.2
		s0,3.7,0,5.4s0,2.9-0.1,3.8c-0.1,2.1-0.7,3.9-1.9,5.5c-1.2,1.6-2.6,2.6-4.4,3.1c-1.3,0.4-3,0.6-5,0.9c-2.1,0.2-4.3,0.4-6.7,0.5
		c-2.4,0.1-4.9,0.1-7.3,0c-2.4-0.1-4.7-0.3-6.7-0.6C276.1,258.9,274.4,258.5,273.1,258z M277.2,294.4c0-0.5,0.1-1.2,0.1-2
		c0-0.9,0-1.5-0.1-1.9c-0.1-0.4-0.2-0.8-0.4-1.2c-0.2-0.4-0.5-0.8-0.9-1c-0.4-0.2-0.8-0.1-1.3,0.1c-0.5,0.2-1,1-1.4,2.3
		c-0.1,0.4-0.2,1.1-0.3,1.9c-0.1,0.9-0.1,1.7-0.1,2.6c0,0.4,0.1,0.8,0.2,1.3c0.1,0.4,0.4,0.7,0.8,0.7c0.3,0,0.6,0,1.1,0
		s0.8-0.1,1.2-0.2c0.4-0.1,0.7-0.5,0.8-1C277.1,295.4,277.2,294.9,277.2,294.4z M277.8,238.9c-0.6,0-1.1,0.2-1.5,0.6
		s-0.5,0.8-0.5,1.1c0,0.4,0.2,0.7,0.5,1s0.8,0.4,1.4,0.4c0.6,0,1.1-0.1,1.4-0.4c0.3-0.2,0.5-0.7,0.5-1.4c0-0.7-0.2-1.1-0.7-1.2
		C278.4,239,278.1,238.9,277.8,238.9z M277.7,248.6c-0.6,0-1,0.2-1.4,0.5s-0.5,0.8-0.5,1.2c0,0.4,0.2,0.9,0.5,1.4s0.8,0.7,1.5,0.7
		c0.3,0,0.7-0.1,1.1-0.3c0.5-0.2,0.7-0.7,0.7-1.5s-0.2-1.3-0.5-1.6C278.8,248.7,278.3,248.6,277.7,248.6z M279.1,279.3
		c-0.8-0.1-1.5-0.7-2.2-1.8c-0.7-1.1-0.9-3-0.7-5.7h32.6c0.3,0.8,0.5,1.6,0.6,2.2c0.1,0.7,0.2,1.2,0.2,1.7c0,1.1-0.4,1.9-0.9,2.3
		c-0.6,0.4-1.2,0.7-1.8,0.9c-0.2,0.1-0.9,0.1-1.9,0.2c-1.1,0.1-2.4,0.1-4,0.1c-1.6,0-3.4,0-5.3,0c-1.9,0-3.8,0-5.6,0
		c-1.9,0-3.6,0-5.2,0c-1.6,0-2.9,0-3.9,0C279.9,279.3,279.3,279.3,279.1,279.3z M291,295.6c0.7-0.4,0.9-1.1,0.5-2
		c-0.1-0.3-0.5-0.8-1-1.5c-0.6-0.7-1.2-1.3-1.8-2c-0.6-0.6-1.1-1-1.5-1.1c-0.2-0.1-0.5,0-0.8,0.2c-0.3,0.2-0.5,0.7-0.6,1.5
		c0,0.2-0.1,0.7-0.1,1.3s0,1.3,0.1,1.9c0,0.6,0.2,1,0.6,1.3c0.3,0.3,0.7,0.5,1.1,0.6c0.4,0.1,1,0.1,1.8,0
		C290.1,295.9,290.6,295.8,291,295.6z M288.6,238.5c-0.8,0-1.3,0.2-1.5,0.6c-0.1,0.4-0.2,0.7-0.3,1c0,0.4,0.1,0.8,0.4,1.3
		c0.2,0.4,0.7,0.6,1.4,0.6c0.7,0,1.2-0.2,1.5-0.5c0.3-0.3,0.4-0.8,0.4-1.4c0-0.5-0.1-0.9-0.3-1.2
		C289.9,238.7,289.4,238.5,288.6,238.5z M288.6,248.7c-0.8,0-1.3,0.2-1.5,0.7c-0.1,0.5-0.2,0.9-0.3,1.2c0,0.5,0.1,1,0.4,1.5
		c0.2,0.5,0.7,0.8,1.4,0.8c0.7,0,1.2-0.2,1.5-0.6c0.3-0.4,0.4-0.9,0.4-1.7c0-0.5-0.1-1-0.3-1.4C289.9,248.9,289.4,248.7,288.6,248.7
		z M299.4,238.9c-0.3,0-0.6,0.1-1.1,0.2c-0.5,0.2-0.7,0.6-0.7,1.2c0,0.7,0.2,1.1,0.5,1.4c0.4,0.2,0.8,0.4,1.4,0.4
		c0.6,0,1-0.1,1.4-0.4c0.3-0.3,0.5-0.6,0.5-1c0-0.4-0.2-0.7-0.5-1.1C300.5,239.1,300,238.9,299.4,238.9z M299.5,248.6
		c-0.6,0-1,0.1-1.4,0.4c-0.4,0.3-0.5,0.8-0.5,1.6s0.2,1.3,0.7,1.5c0.5,0.2,0.8,0.3,1.1,0.3c0.6,0,1.2-0.2,1.5-0.7
		c0.4-0.5,0.5-0.9,0.5-1.4c0-0.4-0.2-0.8-0.5-1.2C300.6,248.8,300.1,248.6,299.5,248.6z M302.1,289.5c0.2-0.5,0.1-0.9-0.4-1
		c-0.3-0.1-0.5-0.2-0.9-0.2c-0.3,0-0.7,0.1-1.1,0.2c-0.2,0.1-0.4,0.2-0.5,0.3c-0.2,0.2-0.2,0.4,0.1,0.7c0.3,0.4,0.6,0.8,1,1.1
		c0.4,0.3,0.6,0.5,0.7,0.5c0.2-0.1,0.4-0.3,0.6-0.6C301.9,290.2,302.1,289.9,302.1,289.5z"/>
	<path class="st8" d="M364.4,230.2c0.1,0.6,0.2,1.9,0.2,3.9c0.1,2,0.1,4.5,0.1,7.4c0,2.9,0.1,6.1,0.1,9.5c0,3.4,0.1,6.8,0.1,10.2
		s0,6.6,0,9.6c0,3,0,5.6-0.1,7.7c0,2.1,0,3.6-0.1,4.4c0,0.9-0.1,2.1-0.2,3.7c-0.1,1.6-0.3,3.3-0.5,5.1c-0.3,1.9-0.6,3.7-1,5.5
		c-0.4,1.8-1,3.3-1.7,4.6c-1,1.8-2,3-3.1,3.7c-1.1,0.7-2.3,1.3-3.7,1.8c-0.3,0.1-1,0.2-2.2,0.3s-2.5,0.2-4,0.2s-3.2,0.1-5,0.1
		c-1.7,0-3.4,0-5.1,0c-1.6,0-3.1-0.1-4.3-0.2c-1.2-0.1-2.1-0.2-2.7-0.4c-0.3-0.1-1-0.3-1.9-0.5c-0.9-0.2-2-0.7-3.1-1.4
		c-1.1-0.8-2.2-1.9-3.1-3.6c-0.7-1.2-1.3-2.7-1.8-4.5c-0.5-1.8-0.8-3.8-1-5.8c-0.2-2.1-0.4-4.1-0.5-6c-0.1-1.9-0.1-3.7-0.1-5.2
		c0-1,0-2.8,0-5.4c0-2.6,0-5.7,0-9.2c0-3.5,0-7.2,0.1-11c0-3.8,0-7.4,0.1-10.9c0-3.5,0.1-6.4,0.1-8.8s0.1-4,0.2-4.7H364.4z
		 M356.5,275c0-0.6,0.1-1.6,0.1-2.9c0-1.4,0-2.7,0-4.1c0-1.4-0.1-2.5-0.1-3.2c0-1.1-0.4-1.8-1.1-2.2c-0.7-0.4-1.3-0.6-1.9-0.6
		c-1.8,0.1-3.8,0.2-6.2,0.2c-2.3,0-4.7,0-7.2,0c-2.4,0-4.7,0-6.8-0.1c-2.1-0.1-3.7-0.1-4.9-0.3c0,2.7-0.1,5.4-0.1,8.1
		c0,2.7,0,5.1,0,7.1c0,2,0,3.5,0,4.2c0,0.5,0.1,1.1,0.3,1.8c0.1,0.7,0.4,1.1,0.8,1.4c0.4,0.3,0.8,0.3,1.4,0s1.1-0.7,1.5-1.4
		c0.4-0.7,0.5-1.2,0.2-1.7c-0.3-0.4-0.5-0.8-0.7-1.1c-0.3-0.5-0.6-1.1-0.8-1.9c-0.1-0.6-0.2-1.7-0.3-3.2c-0.1-1.6-0.1-3.2-0.1-5
		c0-1.8,0-3.9,0.1-6.4h22.4c0.1,2.4,0.2,4.4,0.2,6.1c0,1.7,0,3.3-0.1,4.8c0,0.6,0.1,0.9,0.3,0.8c0.2-0.1,0.5-0.3,1-0.8
		c0.4,0.7,0.8,1.2,1,1.7c0.2,0.4,0.4,0.4,0.7,0.2C356.3,276.4,356.4,275.8,356.5,275z M328.7,248.8c0,0.4-0.1,0.8-0.1,1.3
		c0,0.5,0,1.1-0.1,1.7c0,0.4,0.1,0.9,0.4,1.6c0.2,0.6,0.6,1,1.2,1.1c0.3,0.1,0.7,0.1,1.4,0.1c0.6,0,1.3,0,2,0s1.4,0,2,0
		c0.6,0,1,0,1.2,0c0.4,0,0.7-0.1,1-0.4c0.3-0.2,0.5-0.6,0.5-1.1c0-0.5-0.1-0.8-0.4-0.9c-0.3-0.1-0.6-0.2-1.1-0.3
		c-0.5-0.1-1.1-0.1-1.9-0.1c-0.8,0-1.5-0.1-2.1-0.4c-0.6-0.2-1.1-0.6-1.7-1.1c-0.6-0.6-1-1.3-1.3-2.3c-0.1-0.4-0.3-0.6-0.5-0.5
		C329,247.7,328.8,248.1,328.7,248.8z M330.9,242.6c-0.2,0.2-0.3,0.5-0.2,0.9c0,0.4,0.3,0.6,0.6,0.6h5.8c0.5,0,0.8-0.1,0.9-0.4
		c0.1-0.3,0.2-0.6,0.2-0.9c0-0.8-0.4-1.3-1.1-1.3c-0.3-0.1-0.8-0.1-1.5,0s-1.3,0.1-2,0.1c-0.6,0.1-1.1,0.1-1.3,0.2
		C331.7,241.8,331.2,242.2,330.9,242.6z M334.1,295.4c0.7,0.1,1.2-0.1,1.6-0.5c0.4-0.5,0.6-1.1,0.7-1.8c0.1-0.7,0.2-1.2,0.1-1.7
		c0-0.7-0.2-0.9-0.5-0.9c-0.3,0.1-0.6,0.2-0.8,0.3c-0.6,0.4-1.2,0.8-1.7,1s-0.9,0.6-1.3,0.9c-0.5,0.3-0.6,0.7-0.3,1.1
		c0.3,0.5,0.5,0.7,0.8,0.9c0.3,0.1,0.5,0.2,0.7,0.4C333.7,295.2,333.9,295.3,334.1,295.4z M339.7,276.9c0.3,0.1,0.6,0.1,1.2,0.2
		c0.5,0.1,1.1,0.1,1.6,0c0.6,0,1-0.1,1.4-0.1c1-0.2,1.6-0.8,1.8-2c0.1-0.4,0.1-0.9,0.1-1.4c0-0.5-0.1-1-0.1-1.3
		c0-0.3-0.2-0.6-0.6-0.9c-0.4-0.3-0.7-0.5-1-0.6c-0.6-0.1-1.2-0.2-2-0.2s-1.4,0.1-2.1,0.2c-0.3,0.1-0.6,0.2-0.9,0.5
		c-0.3,0.3-0.5,0.7-0.6,1.3c-0.1,0.7-0.1,1.5,0,2.4C338.6,275.9,339,276.6,339.7,276.9z M348.1,295.8c0.5-0.2,0.7-0.5,0.5-0.9
		c-0.2-0.4-0.4-0.9-0.7-1.5c-0.7-1.2-1.5-1.9-2.4-2.1c-0.3-0.1-0.6,0-0.9,0.3c-0.4,0.3-0.6,0.7-0.6,1.2c-0.1,0.5-0.2,1.1-0.1,1.8
		c0,0.7,0.3,1.1,0.7,1.3c0.5,0.1,1.1,0.1,1.8,0.2C347,296.1,347.6,296,348.1,295.8z M347.7,241.4c-0.4-0.1-0.6,0-0.8,0.3
		c-0.2,0.3-0.2,0.6-0.2,0.9c-0.1,1,0.3,1.4,1.2,1.3h6.3c0.7,1,1.1,2.1,1.2,3.2c0.1,1.1-0.1,2.1-0.5,2.8c-0.4,0.8-1,1.2-1.7,1.4
		c-0.4,0.1-0.9,0.1-1.6,0.2c-0.7,0.1-1.4,0.1-2.1,0.2c-0.7,0.1-1.2,0.1-1.6,0.2c-0.5,0.1-0.9,0.5-1.1,1.3c0.3,0.8,0.6,1.2,1.1,1.3
		c0.2,0.1,0.6,0.1,1.3,0.1c0.6,0,1.4,0,2.1,0c0.8,0,1.4,0,2.1,0c0.6,0,1.1-0.1,1.3-0.1c0.5-0.1,0.9-0.6,1.2-1.3
		c0.3-0.8,0.4-1.4,0.4-1.8c0-1-0.1-1.9-0.1-2.7c0-0.8,0-1.4,0-1.8c-0.1-1.6-0.3-2.7-0.6-3.3s-0.7-1-1.1-1.3
		c-0.4-0.2-0.9-0.4-1.3-0.6c-0.1-0.1-0.4-0.1-0.9-0.1c-0.5,0-1.1-0.1-1.7-0.1s-1.2-0.1-1.7-0.1C348.2,241.4,347.9,241.4,347.7,241.4
		z M350.5,282.7c0.1-0.4,0-0.7-0.3-0.9s-0.6-0.3-1-0.2c-0.2,0.1-0.4,0.1-0.6,0.1c-0.2,0-0.4,0.2-0.6,0.6c-0.2,0.4-0.2,0.8,0,1.1
		c0.2,0.3,0.4,0.5,0.7,0.6c0.3,0.1,0.5,0.2,0.7,0.2c0.3,0,0.5-0.1,0.7-0.5C350.3,283.4,350.4,283.1,350.5,282.7z M355.9,287.7
		c0.1-0.6,0.1-1.2-0.1-1.7c-0.1-0.5-0.2-0.7-0.4-0.4c-0.1,0.2-0.3,0.5-0.4,0.8c-0.1,0.3-0.3,0.5-0.4,0.8c-0.1,0.2-0.3,0.6-0.3,1.1
		c-0.1,0.5,0,0.9,0.2,1.2c0.4,0.5,0.6,0.6,0.8,0.4c0.2-0.2,0.3-0.5,0.4-1C355.8,288.3,355.9,288,355.9,287.7z"/>
</g>
<g class="st12">
	<path class="st8" d="M125.7,340c0.7,0.6,2.6,2.7,3,3.2l-0.7,1.2c-0.4-0.6-1.5-1.9-2.3-2.9v6.5h-1.2v-6.6c-0.9,1.9-2,3.7-3,4.7
		c-0.2-0.4-0.6-0.9-0.8-1.2c1.3-1.1,2.7-3.4,3.6-5.6h-3.2v-1.4h3.5v-2.5h-3.7v-1.4h2.2c-0.1-1-0.4-2.5-0.8-3.7l1-0.4
		c0.4,1.2,0.8,2.8,0.8,3.8l-0.7,0.3h3c-0.2-0.1-0.5-0.2-0.5-0.2c0.4-1.1,0.8-2.7,1-3.9l1.4,0.6c0,0.1-0.2,0.2-0.4,0.2
		c-0.3,0.9-0.7,2.3-1,3.3h2.6v1.4h-3.7c-0.1,0-0.1,0-0.2,0v2.5h3.6v1.4h-3.6V340z M129.2,328.3v1.4h-8v-1.4h3.3v-2.7l1.5,0.1
		c0,0.2-0.1,0.3-0.3,0.3v2.2H129.2z M137.6,333.9v1.5h-2.1v12.5h-1.2v-12.5h-2.8v0.9c0,3.6-0.3,8.4-2.9,11.7
		c-0.1-0.4-0.6-0.9-0.8-1.1c2.4-3,2.6-7.2,2.6-10.6v-8.4l0.9,0.4c1.9-0.7,3.9-1.7,5-2.6l1.2,1.2c-0.1,0.1-0.2,0.1-0.4,0.1
		c-1.3,0.9-3.5,1.9-5.6,2.5v4.3H137.6z"/>
	<path class="st8" d="M141,342.6c-0.2,2.1-0.5,4.2-1.5,5.4l-0.8-0.7c0.9-1.1,1.2-3,1.4-5L141,342.6z M140,341.1v-7.5l-0.3,0.6
		c-0.2-0.3-0.6-0.8-0.9-1c1.4-2.3,2.3-5.3,2.8-7.6l1.4,0.2c0,0.2-0.1,0.3-0.4,0.3c-0.1,0.5-0.3,1.1-0.4,1.7h2.5l0.2-0.1l0.8,0.7
		c-0.1,0.1-0.1,0.2-0.3,0.2c-0.3,1-0.8,2.1-1.3,3.1h2.4v9.3H140z M143.1,331.8c0.4-0.7,0.7-1.7,1-2.6h-2.3c-0.3,0.9-0.6,1.8-1,2.6
		H143.1z M141,335.8h1.8v-2.6H141V335.8z M142.8,337.1H141v2.7h1.8V337.1z M142,346.9c0.1-1.2,0-3-0.2-4.5l0.8-0.1
		c0.2,1.4,0.3,3.3,0.3,4.5L142,346.9z M144.3,346.7c-0.1-1.2-0.4-2.9-0.8-4.2l0.8-0.2c0.4,1.3,0.8,3,0.9,4.2L144.3,346.7z
		 M145.6,335.8v-2.6h-1.9v2.6H145.6z M145.6,339.8v-2.7h-1.9v2.7H145.6z M146.8,346.7c-0.3-1.2-0.9-3.1-1.5-4.5l0.8-0.4
		c0.6,1.4,1.3,3.2,1.5,4.4L146.8,346.7z M155.6,340.3v1.5h-3.9v6.2h-1.2v-6.2h-3.6v-1.5h3.6v-3.5h-2.9v-1.4h2.9v-3.4h-3.3v-1.5h1.9
		c-0.2-1.2-0.8-3-1.3-4.3l1-0.5c0.6,1.3,1.1,3.1,1.4,4.3l-0.9,0.5h3.3l-0.6-0.3c0.5-1.2,1.2-3.2,1.5-4.5l1.5,0.6
		c-0.1,0.2-0.2,0.2-0.4,0.2c-0.4,1.2-1,2.9-1.5,4h2.3v1.5h-3.5v3.4h3.1v1.4h-3.1v3.5H155.6z"/>
	<path class="st8" d="M168.6,330.6c0.2,0,0.4,0,0.5,0c2,0,3.9,1.6,3.9,4.8c0,3.1-1.6,4.9-4.1,4.9c-1.1,0-2.5-0.5-3.6-1.7
		c0.1-0.4,0.3-1,0.4-1.4c1,1.1,2.3,1.6,3.2,1.6c1.7,0,2.8-1.2,2.8-3.4c0-1.8-0.9-3.2-2.8-3.2c-1.5,0-3.9,1-5.9,2
		c0.8,3.8,2,9.3,2.7,12.9l-1.4,0.4c-0.6-3.5-1.7-9.2-2.5-12.7c-1.2,0.6-2.8,1.3-3.7,1.8c0,0.2-0.1,0.4-0.3,0.5l-0.6-1.9
		c1.2-0.5,3-1.3,4.3-1.9c-0.5-2.4-1-4.6-1.4-6l1.9-0.5c0,0.3-0.1,0.4-0.4,0.6c0.4,1.8,0.7,3.4,1.1,5.2c1.9-0.9,3.8-1.7,5.2-1.9
		c-0.8-1.2-2.2-2.9-3.2-3.6l0.8-1.1c1.2,0.9,2.8,2.7,3.7,4.1L168.6,330.6z"/>
	<path class="st8" d="M189.9,331.1c-1.6,0.6-3.8,1.1-6,1.3c0.7,3.3,1.5,5.2,3.4,6.3l-0.9,1.5c-0.8-0.8-1.7-1.5-4-1.7l-0.2-1.4
		c0.9,0.1,1.5,0.2,2,0.4c-0.6-1-1.1-2.5-1.6-5c-0.8,0.1-1.9,0.1-3,0.1c-1.2,0-3.1,0-4.2-0.1V331c1.1,0.1,2.6,0.1,4.2,0.1
		c0.9,0,2,0,2.7-0.1c-0.2-1.3-0.4-3.1-0.6-4.9l1.9,0c0,0.3-0.2,0.5-0.5,0.6c0.1,1.4,0.3,2.9,0.5,4.2c2.1-0.2,4.4-0.7,6-1.4
		L189.9,331.1z M186.7,346.9c-0.9,0-1.8,0.1-3.3,0.1c-3.8,0-6.4-1.5-6.4-4.8c0-1.4,0.6-2.8,1.6-4l1,1c-0.8,0.9-1.3,2-1.3,3
		c0,2.4,2.3,3.1,5.2,3.1c1.6,0,2.5,0,3.4-0.1L186.7,346.9z"/>
	<path class="st8" d="M194.5,328.9c0,0.2-0.2,0.4-0.5,0.4c-0.2,1.8-0.3,4-0.3,6c0,0.9,0,1.8,0.1,2.5c0.2,4.1,1.5,6.6,2.8,6.5
		c0.7,0,1.7-2.4,2.3-5.1c0.3,0.3,0.7,0.8,1,1c-0.8,3.2-1.9,5.9-3.4,5.9c-2.3,0-3.9-3.6-4.1-8.3c-0.1-0.9-0.1-1.9-0.1-3
		c0-2.1,0.1-4.4,0.3-6.5L194.5,328.9z M206.4,340c-0.5-4.2-2.1-7.2-4.5-9l0.8-1.3c2.6,1.9,4.6,5.3,5.1,9.8L206.4,340z"/>
	<path class="st8" d="M215.1,336.8c0,1.4-0.8,2.5-1.9,2.5c-1,0-1.9-1.1-1.9-2.5s0.8-2.5,1.9-2.5
		C214.3,334.3,215.1,335.4,215.1,336.8z"/>
	<path class="st8" d="M231.6,329.8c-0.1,0.1-0.2,0.2-0.4,0.2c-0.3,0.9-0.8,2.1-1.2,3h4.9v1.4h-13.8v2.4c0,3.2-0.3,7.9-1.9,11.3
		c-0.2-0.3-0.7-0.9-0.9-1c1.5-3.1,1.7-7.3,1.7-10.2V333h3.6c-0.1-0.9-0.6-2.3-1-3.3l1-0.4h-3.9v-1.4h6.5v-2.3l1.6,0.1
		c0,0.2-0.1,0.3-0.4,0.3v1.8h6.6v1.4h-3.5L231.6,329.8z M228.8,342.7v3.3h6.1v1.4h-13.1V346h5.8v-3.3h-4.1v-1.3h4.1v-2.7H224
		c-0.4,0.9-0.9,1.8-1.3,2.4c-0.2-0.2-0.6-0.6-0.9-0.7c0.9-1.2,1.8-3.2,2.3-5.2l1.3,0.5c-0.1,0.1-0.2,0.2-0.4,0.2
		c-0.1,0.5-0.3,1-0.5,1.4h3v-2.3l1.5,0.1c0,0.2-0.1,0.3-0.3,0.3v1.8h5v1.3h-5v2.7h4.6v1.3H228.8z M229,332.6
		c0.4-0.9,0.8-2.3,1.1-3.3h-6.4c0.5,1,0.9,2.4,1.1,3.3l-0.9,0.4h5.9L229,332.6z"/>
	<path class="st8" d="M239.9,340.5l2.1-1.1l0.2,1.4c-1.9,1.2-3.9,2.3-5.1,3c0,0.2-0.1,0.3-0.2,0.4l-0.6-1.8c0.7-0.3,1.5-0.8,2.5-1.2
		v-8h-2.2v-1.5h2.2v-5.7l1.5,0.1c0,0.2-0.1,0.3-0.4,0.3v5.3h2v1.5h-2V340.5z M244.7,344.3c0,1.3,0.2,1.6,1.5,1.6h4.6
		c1.1,0,1.3-0.7,1.4-3.6c0.3,0.3,0.8,0.6,1.1,0.6c-0.2,3.3-0.6,4.4-2.5,4.4h-4.6c-2,0-2.6-0.6-2.6-3.1v-8.1l-1.8,1l-0.5-1.4l2.3-1.3
		v-6.6l1.5,0.1c0,0.2-0.1,0.3-0.4,0.3v5.4l2.6-1.5v-6.7l1.5,0.1c0,0.2-0.1,0.3-0.3,0.3v5.6l2.9-1.7l0.3-0.3l1,0.5
		c0,0.1-0.1,0.2-0.2,0.3c0,4.6-0.1,8.4-0.2,9.3c-0.2,1.5-0.8,1.7-2.7,1.7c-0.1-0.5-0.1-1.1-0.3-1.4c0.5,0,1.1,0,1.3,0
		c0.3,0,0.5-0.1,0.6-0.7c0.1-0.6,0.1-3.6,0.1-7.6l-2.8,1.6v9.2h-1.2V334l-2.6,1.5V344.3z"/>
	<path class="st8" d="M259.1,331.5h2.9c0.1-0.6,0.1-1.4,0.2-2.1h-7.4v-1.5h7.5c0.1-0.8,0.1-1.7,0.1-2.4l1.7,0.2
		c-0.1,0.2-0.2,0.3-0.4,0.3c0,0.6-0.1,1.2-0.1,1.8h7.3v1.5h-7.4c-0.1,0.7-0.1,1.5-0.2,2.1h5.6v11.4h-9.6V331.5z M270.9,345.1v1.5
		h-14v1.3h-1.2v-15.7l1.6,0.1c0,0.2-0.1,0.3-0.4,0.3v12.4H270.9z M267.5,334.9v-2.1h-7.3v2.1H267.5z M267.5,338.3v-2.2h-7.3v2.2
		H267.5z M267.5,341.7v-2.2h-7.3v2.2H267.5z"/>
	<path class="st8" d="M276.4,335.2v7.8c1.4,2.9,4,2.9,7.2,2.9c1.9,0,4.2-0.1,5.6-0.2c-0.1,0.4-0.4,1.2-0.4,1.6
		c-1.2,0.1-3.2,0.1-5,0.1c-3.7,0-6.2,0-8-3c-0.9,1.1-1.8,2.1-2.6,3c0,0.2,0,0.3-0.2,0.4l-0.7-1.8c0.9-0.8,1.9-1.9,2.8-2.9v-6.4h-2.6
		v-1.5H276.4z M273.7,326.2c1.2,1,2.6,2.6,3.2,3.8l-1,1.1c-0.6-1.2-2-2.8-3.2-3.9L273.7,326.2z M288.9,336.9h-4.8
		c0.8,3.2,2.3,5.3,4.8,6.3c-0.3,0.3-0.6,0.9-0.8,1.3c-2.4-1.1-4-3.3-4.9-6.6c-0.5,2.3-1.8,4.6-4.9,6.5c-0.2-0.4-0.5-0.9-0.8-1.2
		c3.3-1.8,4.3-4.2,4.7-6.4h-4.8v-1.5h5c0-0.3,0-0.6,0-0.8v-2.8h-4.4v-1.5h7.2l-0.9-0.6c0.6-1.1,1.4-2.9,1.8-4.1l1.4,0.7
		c-0.1,0.2-0.2,0.2-0.4,0.2c-0.5,1.1-1.2,2.7-1.9,3.7h3.1v1.5h-4.8v2.8c0,0.3,0,0.6,0,0.8h5.3V336.9z M280.4,330.3
		c-0.2-1.1-0.9-2.8-1.6-4l1-0.6c0.7,1.2,1.5,2.8,1.7,3.9L280.4,330.3z"/>
</g>
</svg>
