<svg width="28" height="122" viewBox="0 0 28 122" fill="none" xmlns="http://www.w3.org/2000/svg">
<line x1="14" y1="121.002" x2="14" y2="0.99791" stroke="#79431C"/>
<line x1="14.3536" y1="1.64645" x2="27.3536" y2="14.6464" stroke="#79431C"/>
<path d="M7.04687 40.0137C6.17187 40.0137 5.5 39.7148 5.03125 39.1172C4.56641 38.5195 4.33398 37.6777 4.33398 36.5918L4.33398 35.6074L1 35.6074L1 34.5293L9.56641 34.5293L9.56641 36.7969C9.56641 38.9414 8.72656 40.0137 7.04687 40.0137ZM5.25977 35.6074L5.25977 36.4687C5.25977 37.3203 5.39648 37.9375 5.66992 38.3203C5.94727 38.7031 6.39062 38.8945 7 38.8945C7.55078 38.8945 7.96289 38.7168 8.23633 38.3613C8.50977 38.0059 8.64648 37.4512 8.64648 36.6973L8.64648 35.6074L5.25977 35.6074ZM0.999999 46.875L3.6543 45.8437L3.6543 42.4453L1 41.4258L1 40.3359L9.60156 43.6816L9.60156 44.6543L0.999999 47.9941L0.999999 46.875ZM4.60937 45.5215L7.20508 44.5605L8.48828 44.1504C8.01953 44.0332 7.5918 43.9102 7.20508 43.7812L4.60937 42.8086L4.60937 45.5215ZM5.52344 52.7812L5.52344 55.7402L1.32226 55.7402C1.17773 55.2871 1.06836 54.8262 0.99414 54.3574C0.919921 53.8887 0.882812 53.3457 0.882812 52.7285C0.882812 51.4238 1.26953 50.4141 2.04297 49.6992C2.81641 48.9844 3.89648 48.627 5.2832 48.627C6.17773 48.627 6.95898 48.8047 7.62695 49.1602C8.29492 49.5156 8.80469 50.0273 9.15625 50.6953C9.51172 51.3672 9.68945 52.1582 9.68945 53.0684C9.68945 53.9824 9.52148 54.834 9.18555 55.623L8.24805 55.2129C8.57617 54.459 8.74023 53.7227 8.74023 53.0039C8.74023 51.9844 8.43164 51.1875 7.81445 50.6133C7.19726 50.0391 6.35351 49.752 5.2832 49.752C4.15039 49.752 3.28906 50.0273 2.69922 50.5781C2.10937 51.1289 1.81445 51.9297 1.81445 52.9805C1.81445 53.5547 1.88281 54.1152 2.01953 54.6621L4.5625 54.6621L4.5625 52.7812L5.52344 52.7812ZM0.999999 62.5898L0.999999 57.8027L9.56641 57.8027L9.5664 62.5898L8.61719 62.5898L8.61719 58.8809L5.94531 58.8809L5.94531 62.373L5.00781 62.373L5.00781 58.8809L1.94922 58.8809L1.94922 62.5898L0.999999 62.5898ZM0.999998 70.3125L0.999998 69.2285L8.61719 69.2285L8.61719 66.5508L9.5664 66.5508L9.5664 72.9727L8.61719 72.9727L8.61719 70.3125L0.999998 70.3125ZM5.29492 81.6387C3.92383 81.6387 2.8457 81.291 2.06054 80.5957C1.27539 79.9043 0.88281 78.9355 0.882811 77.6895C0.882811 76.4277 1.26758 75.4512 2.03711 74.7598C2.81055 74.0723 3.90039 73.7285 5.30664 73.7285C6.70117 73.7285 7.78125 74.0703 8.54687 74.7539C9.3164 75.4414 9.70117 76.4238 9.70117 77.7012C9.70117 78.9434 9.31054 79.9102 8.52929 80.6016C7.75195 81.293 6.67383 81.6387 5.29492 81.6387ZM5.29492 74.8652C4.16211 74.8652 3.29883 75.1055 2.70508 75.5859C2.11133 76.0664 1.81445 76.7676 1.81445 77.6895C1.81445 78.6074 2.10742 79.3047 2.69336 79.7812C3.27929 80.2578 4.14648 80.4961 5.29492 80.4961C6.43945 80.4961 7.30078 80.2598 7.8789 79.7871C8.46094 79.3145 8.75195 78.6191 8.75195 77.7012C8.75195 76.7715 8.45703 76.0664 7.86719 75.5859C7.28125 75.1055 6.42383 74.8652 5.29492 74.8652ZM7.04687 89.0215C6.17187 89.0215 5.5 88.7227 5.03125 88.125C4.5664 87.5273 4.33398 86.6855 4.33398 85.5996L4.33398 84.6152L0.999998 84.6152L0.999998 83.5371L9.5664 83.5371L9.5664 85.8047C9.5664 87.9492 8.72656 89.0215 7.04687 89.0215ZM5.25976 84.6152L5.25976 85.4766C5.25976 86.3281 5.39648 86.9453 5.66992 87.3281C5.94726 87.7109 6.39062 87.9023 7 87.9023C7.55078 87.9023 7.96289 87.7246 8.23633 87.3691C8.50976 87.0137 8.64648 86.459 8.64648 85.7051L8.64648 84.6152L5.25976 84.6152Z" fill="#79431C"/>
</svg>
