<svg width="16" height="122" viewBox="0 0 16 122" fill="none" xmlns="http://www.w3.org/2000/svg">
<line x1="1" y1="0.997925" x2="1" y2="121.002" stroke="#79431C"/>
<line x1="0.646508" y1="121.646" x2="13.6465" y2="108.646" stroke="#79431C"/>
<path d="M9.29114 44.7266C8.54504 44.7266 7.95715 44.457 7.52747 43.918C7.09778 43.3789 6.88293 42.6289 6.88293 41.668C6.88293 40.6523 7.0177 39.8672 7.28723 39.3125L8.31848 39.3125C8.16223 39.6758 8.03918 40.0723 7.94934 40.502C7.8595 40.9355 7.81457 41.3398 7.81457 41.7148C7.81457 42.3555 7.93762 42.8379 8.18372 43.1621C8.42981 43.4863 8.7677 43.6484 9.19739 43.6484C9.48254 43.6484 9.71692 43.5898 9.90051 43.4727C10.0841 43.3555 10.256 43.1582 10.4161 42.8809C10.5763 42.6074 10.7579 42.1914 10.9611 41.6328C11.2501 40.8398 11.59 40.2734 11.9806 39.9336C12.3751 39.5937 12.8829 39.4238 13.504 39.4238C14.172 39.4238 14.7032 39.6738 15.0978 40.1738C15.4923 40.6777 15.6896 41.3398 15.6896 42.1602C15.6896 43.0156 15.5294 43.8027 15.2091 44.5215L14.2833 44.1875C14.588 43.4531 14.7404 42.7695 14.7404 42.1367C14.7404 41.6289 14.631 41.2305 14.4122 40.9414C14.1935 40.6563 13.8868 40.5137 13.4923 40.5137C13.2111 40.5137 12.9767 40.5684 12.7892 40.6777C12.6056 40.791 12.4376 40.9707 12.2853 41.2168C12.1329 41.4668 11.9591 41.8574 11.7638 42.3887C11.5294 43.0254 11.3009 43.5 11.0782 43.8125C10.8595 44.125 10.6056 44.3555 10.3165 44.5039C10.0314 44.6523 9.68957 44.7266 9.29114 44.7266ZM14.7404 50.123C14.7404 49.2012 14.4318 48.4766 13.8146 47.9492C13.1974 47.4219 12.3536 47.1582 11.2833 47.1582C10.1779 47.1582 9.32434 47.4141 8.72278 47.9258C8.12512 48.4375 7.82629 49.166 7.82629 50.1113C7.82629 50.7207 7.93957 51.4062 8.16614 52.168L7.22864 52.168C7.09582 51.8047 7.00598 51.4551 6.95911 51.1191C6.90832 50.7832 6.88293 50.3965 6.88293 49.959C6.88293 48.6973 7.26575 47.7246 8.03137 47.041C8.8009 46.3613 9.88879 46.0215 11.295 46.0215C12.1779 46.0215 12.9513 46.1836 13.6154 46.5078C14.2794 46.8359 14.7911 47.3105 15.1505 47.9316C15.5099 48.5566 15.6896 49.291 15.6896 50.1348C15.6896 51.041 15.5216 51.8301 15.1857 52.502L14.2716 52.0684C14.5841 51.3848 14.7404 50.7363 14.7404 50.123ZM11.4532 55.1152L11.4532 56.3984C11.4532 57.0937 11.59 57.6016 11.8634 57.9219C12.1368 58.2422 12.5431 58.4023 13.0822 58.4023C13.6212 58.4023 14.0138 58.2402 14.2599 57.916C14.5099 57.5918 14.6349 57.0664 14.6349 56.3398L14.6349 55.1152L11.4532 55.1152ZM10.5392 55.1152L7.00012 55.1152L7.00012 54.0371L15.5665 54.0371L15.5665 56.3984C15.5665 57.4609 15.3634 58.2461 14.9572 58.7539C14.5548 59.2656 13.9474 59.5215 13.1349 59.5215C11.9982 59.5215 11.2325 58.9492 10.838 57.8047L7.00012 60.1543L7.00012 58.8945L10.5392 56.8203L10.5392 55.1152ZM11.295 68.9785C9.92395 68.9785 8.84582 68.6309 8.06067 67.9355C7.27551 67.2441 6.88293 66.2754 6.88293 65.0293C6.88293 63.7676 7.2677 62.791 8.03723 62.0996C8.81067 61.4121 9.90051 61.0684 11.3068 61.0684C12.7013 61.0684 13.7814 61.4102 14.547 62.0938C15.3165 62.7813 15.7013 63.7637 15.7013 65.041C15.7013 66.2832 15.3107 67.25 14.5294 67.9414C13.7521 68.6328 12.6739 68.9785 11.295 68.9785ZM11.295 62.2051C10.1622 62.2051 9.29895 62.4453 8.7052 62.9258C8.11145 63.4062 7.81457 64.1074 7.81457 65.0293C7.81457 65.9473 8.10754 66.6445 8.69348 67.1211C9.27942 67.5977 10.1466 67.8359 11.295 67.8359C12.4396 67.8359 13.3009 67.5996 13.879 67.127C14.4611 66.6543 14.7521 65.959 14.7521 65.041C14.7521 64.1113 14.4572 63.4063 13.8673 62.9258C13.2814 62.4453 12.4239 62.2051 11.295 62.2051ZM7.00012 70.877L15.5665 70.877L15.5665 71.9551L7.96106 71.9551L7.96106 75.6992L7.00012 75.6992L7.00012 70.877ZM7.00012 77.1699L15.5665 77.1699L15.5665 78.248L7.96106 78.248L7.96106 81.9922L7.00012 81.9922L7.00012 77.1699Z" fill="#79431C"/>
</svg>
