<svg xmlns="http://www.w3.org/2000/svg" viewBox="0 0 1161.93 896.27"><path d="M1101.07,124C1003.58,5.71,581,0,581,0S158.35,5.71,60.86,124c-79,95.9-78.08,222.27-14.53,229.46,42.44,4.8,188.4,20.66,188.87-39.08.51-64.14,1.69-110.88,87.61-150.17,4.46-2,9.16-4,14.05-5.81C315.11,178,324,208.17,328.3,219.15A143.69,143.69,0,0,0,311,233.32C268,273.82,239.81,363,239.81,363c-11.73,40-81.85,231-81.46,370.1.23,80.46,0,163.15,91.53,163.15H912.06c91.52,0,91.29-82.69,91.52-163.15C1004,594,933.85,403.2,922.12,363.17c0,0-28.2-89.27-71.19-129.78a143.12,143.12,0,0,0-17.3-14.2c4.29-11,13.19-41.17-8.55-60.78,4.88,1.84,9.59,3.76,14,5.8,85.92,39.29,87.11,86,87.61,150.16.48,59.75,146.43,43.88,188.87,39.08C1179.16,346.26,1180.12,219.89,1101.07,124ZM581,166.49c-31,0-128.66,7.38-128.66,7.38S445.61,150,438,134.81C511,124.36,581,124,581,124s70,.37,143,10.82c-7.64,15.22-14.34,39.06-14.34,39.06S611.93,166.49,581,166.49Z"/><circle cx="581.23" cy="535.49" r="255.45" fill="#fff"/><circle cx="581.23" cy="362.44" r="35.1"/><circle cx="494.7" cy="385.62" r="35.1" transform="translate(26.68 803.22) rotate(-79.68)"/><circle cx="431.36" cy="448.96" r="35.1" transform="translate(-191.12 436.52) rotate(-45)"/><circle cx="408.18" cy="535.49" r="35.1"/><circle cx="431.36" cy="622.01" r="35.1" transform="translate(-256.58 306.25) rotate(-30.6)"/><circle cx="494.7" cy="685.35" r="35.1" transform="translate(-233.35 255.96) rotate(-23.65)"/><circle cx="581.23" cy="708.54" r="35.1"/><circle cx="667.75" cy="685.35" r="35.1" transform="translate(-64.86 69.82) rotate(-5.71)"/><circle cx="731.09" cy="448.96" r="35.1" transform="translate(-100.65 238.58) rotate(-17.36)"/><circle cx="667.75" cy="385.62" r="35.1" transform="translate(134.56 942.67) rotate(-76.26)"/><path d="M802.79,679.93S682.13,566.4,703,552.14s142.68,46.07,142.68,46.07S836.84,644.55,802.79,679.93Z"/><circle cx="581.23" cy="536.86" r="95"/></svg>