<svg xmlns="http://www.w3.org/2000/svg" viewBox="0 0 640 479.51"><path d="M320,479C124.92,479,13.09,333.17.5,315.84V.5h639V315.84c-8.08,11.13-38,49.63-89.28,86.84A409.27,409.27,0,0,1,453,455.14,379.64,379.64,0,0,1,322.5,479Z" fill="#75c679"/><path d="M639,1V315.68c-8.21,11.28-38,49.57-89.07,86.59a408.67,408.67,0,0,1-97.09,52.4A379.19,379.19,0,0,1,322.49,478.5H320a378.49,378.49,0,0,1-131.46-23.42,409.83,409.83,0,0,1-98-52.64C37.82,364.33,7.11,324.06,1,315.68V1H639m1-1H0V316c10.64,14.68,122.56,163.51,320,163.51h2.49c195.91-1.24,306.29-148,317.5-163.5V0Z"/></svg>